<mxfile host="app.diagrams.net" modified="2024-05-24T18:45:18.620Z" agent="Mozilla/5.0 (Macintosh; Intel Mac OS X 10_15_7) AppleWebKit/605.1.15 (KHTML, like Gecko) Version/17.5 Safari/605.1.15" etag="u6_I4XoS5ntetpTqLWJj" version="24.4.4" type="github">
  <diagram name="第1頁" id="7_8QNeBAMIdOn81Ms1cM">
    <mxGraphModel dx="1703" dy="1823" grid="1" gridSize="10" guides="1" tooltips="1" connect="1" arrows="1" fold="1" page="1" pageScale="1" pageWidth="827" pageHeight="1169" math="0" shadow="0">
      <root>
        <mxCell id="0" />
        <mxCell id="1" parent="0" />
        <mxCell id="Zssg3eLQRXmlfniPrngJ-4" value="銀行同步服務" style="rounded=1;whiteSpace=wrap;html=1;strokeColor=default;" parent="1" vertex="1">
          <mxGeometry x="-450" y="-1075" width="110" height="30" as="geometry" />
        </mxCell>
        <mxCell id="Zssg3eLQRXmlfniPrngJ-14" style="edgeStyle=orthogonalEdgeStyle;rounded=0;orthogonalLoop=1;jettySize=auto;html=1;entryX=0;entryY=0.5;entryDx=0;entryDy=0;startArrow=classic;startFill=1;" parent="1" source="Zssg3eLQRXmlfniPrngJ-10" target="Zssg3eLQRXmlfniPrngJ-4" edge="1">
          <mxGeometry relative="1" as="geometry" />
        </mxCell>
        <mxCell id="Zssg3eLQRXmlfniPrngJ-15" value="TCP" style="edgeLabel;html=1;align=center;verticalAlign=middle;resizable=0;points=[];" parent="Zssg3eLQRXmlfniPrngJ-14" vertex="1" connectable="0">
          <mxGeometry x="-0.1881" y="-2" relative="1" as="geometry">
            <mxPoint x="3" y="-2" as="offset" />
          </mxGeometry>
        </mxCell>
        <mxCell id="Zssg3eLQRXmlfniPrngJ-10" value="總服務 nestjs" style="swimlane;whiteSpace=wrap;html=1;startSize=23;" parent="1" vertex="1">
          <mxGeometry x="-760" y="-1120" width="200" height="120" as="geometry">
            <mxRectangle x="-730" y="-900" width="80" height="30" as="alternateBounds" />
          </mxGeometry>
        </mxCell>
        <mxCell id="Zssg3eLQRXmlfniPrngJ-11" value="Web 服務" style="rounded=1;whiteSpace=wrap;html=1;strokeColor=default;" parent="Zssg3eLQRXmlfniPrngJ-10" vertex="1">
          <mxGeometry x="45" y="30" width="110" height="30" as="geometry" />
        </mxCell>
        <mxCell id="Zssg3eLQRXmlfniPrngJ-12" value="身分驗證服務" style="rounded=1;whiteSpace=wrap;html=1;strokeColor=default;" parent="Zssg3eLQRXmlfniPrngJ-10" vertex="1">
          <mxGeometry x="45" y="70" width="110" height="30" as="geometry" />
        </mxCell>
        <mxCell id="Zssg3eLQRXmlfniPrngJ-17" style="edgeStyle=orthogonalEdgeStyle;rounded=0;orthogonalLoop=1;jettySize=auto;html=1;entryX=0.5;entryY=1;entryDx=0;entryDy=0;startArrow=classic;startFill=1;" parent="1" source="Zssg3eLQRXmlfniPrngJ-16" target="Zssg3eLQRXmlfniPrngJ-10" edge="1">
          <mxGeometry relative="1" as="geometry">
            <mxPoint x="-600" y="-1000" as="targetPoint" />
          </mxGeometry>
        </mxCell>
        <mxCell id="Zssg3eLQRXmlfniPrngJ-16" value="" style="shape=cylinder3;whiteSpace=wrap;html=1;boundedLbl=1;backgroundOutline=1;size=15;" parent="1" vertex="1">
          <mxGeometry x="-770" y="-930" width="220" height="290" as="geometry" />
        </mxCell>
        <mxCell id="YUTbw6dWfOsZHbmSQwE_-1" value="Users" style="shape=table;startSize=0;container=1;collapsible=1;childLayout=tableLayout;fixedRows=1;rowLines=0;fontStyle=1;align=center;resizeLast=1;html=1;swimlaneFillColor=none;" parent="1" vertex="1" collapsed="1">
          <mxGeometry x="-695" y="-850" width="70" height="30" as="geometry">
            <mxRectangle x="-760" y="-840" width="120" height="150" as="alternateBounds" />
          </mxGeometry>
        </mxCell>
        <mxCell id="YUTbw6dWfOsZHbmSQwE_-2" value="" style="shape=tableRow;horizontal=0;startSize=0;swimlaneHead=0;swimlaneBody=0;fillColor=none;collapsible=0;dropTarget=0;points=[[0,0.5],[1,0.5]];portConstraint=eastwest;top=0;left=0;right=0;bottom=1;" parent="YUTbw6dWfOsZHbmSQwE_-1" vertex="1">
          <mxGeometry y="30" width="120" height="30" as="geometry" />
        </mxCell>
        <mxCell id="YUTbw6dWfOsZHbmSQwE_-3" value="PK" style="shape=partialRectangle;connectable=0;fillColor=none;top=0;left=0;bottom=0;right=0;fontStyle=1;overflow=hidden;whiteSpace=wrap;html=1;" parent="YUTbw6dWfOsZHbmSQwE_-2" vertex="1">
          <mxGeometry width="30" height="30" as="geometry">
            <mxRectangle width="30" height="30" as="alternateBounds" />
          </mxGeometry>
        </mxCell>
        <mxCell id="YUTbw6dWfOsZHbmSQwE_-4" value="UniqueID" style="shape=partialRectangle;connectable=0;fillColor=none;top=0;left=0;bottom=0;right=0;align=left;spacingLeft=6;fontStyle=5;overflow=hidden;whiteSpace=wrap;html=1;" parent="YUTbw6dWfOsZHbmSQwE_-2" vertex="1">
          <mxGeometry x="30" width="90" height="30" as="geometry">
            <mxRectangle width="90" height="30" as="alternateBounds" />
          </mxGeometry>
        </mxCell>
        <mxCell id="YUTbw6dWfOsZHbmSQwE_-5" value="" style="shape=tableRow;horizontal=0;startSize=0;swimlaneHead=0;swimlaneBody=0;fillColor=none;collapsible=0;dropTarget=0;points=[[0,0.5],[1,0.5]];portConstraint=eastwest;top=0;left=0;right=0;bottom=0;" parent="YUTbw6dWfOsZHbmSQwE_-1" vertex="1">
          <mxGeometry y="60" width="120" height="30" as="geometry" />
        </mxCell>
        <mxCell id="YUTbw6dWfOsZHbmSQwE_-6" value="" style="shape=partialRectangle;connectable=0;fillColor=none;top=0;left=0;bottom=0;right=0;editable=1;overflow=hidden;whiteSpace=wrap;html=1;" parent="YUTbw6dWfOsZHbmSQwE_-5" vertex="1">
          <mxGeometry width="30" height="30" as="geometry">
            <mxRectangle width="30" height="30" as="alternateBounds" />
          </mxGeometry>
        </mxCell>
        <mxCell id="YUTbw6dWfOsZHbmSQwE_-7" value="Row 1" style="shape=partialRectangle;connectable=0;fillColor=none;top=0;left=0;bottom=0;right=0;align=left;spacingLeft=6;overflow=hidden;whiteSpace=wrap;html=1;" parent="YUTbw6dWfOsZHbmSQwE_-5" vertex="1">
          <mxGeometry x="30" width="90" height="30" as="geometry">
            <mxRectangle width="90" height="30" as="alternateBounds" />
          </mxGeometry>
        </mxCell>
        <mxCell id="YUTbw6dWfOsZHbmSQwE_-8" value="" style="shape=tableRow;horizontal=0;startSize=0;swimlaneHead=0;swimlaneBody=0;fillColor=none;collapsible=0;dropTarget=0;points=[[0,0.5],[1,0.5]];portConstraint=eastwest;top=0;left=0;right=0;bottom=0;" parent="YUTbw6dWfOsZHbmSQwE_-1" vertex="1">
          <mxGeometry y="90" width="120" height="30" as="geometry" />
        </mxCell>
        <mxCell id="YUTbw6dWfOsZHbmSQwE_-9" value="" style="shape=partialRectangle;connectable=0;fillColor=none;top=0;left=0;bottom=0;right=0;editable=1;overflow=hidden;whiteSpace=wrap;html=1;" parent="YUTbw6dWfOsZHbmSQwE_-8" vertex="1">
          <mxGeometry width="30" height="30" as="geometry">
            <mxRectangle width="30" height="30" as="alternateBounds" />
          </mxGeometry>
        </mxCell>
        <mxCell id="YUTbw6dWfOsZHbmSQwE_-10" value="Row 2" style="shape=partialRectangle;connectable=0;fillColor=none;top=0;left=0;bottom=0;right=0;align=left;spacingLeft=6;overflow=hidden;whiteSpace=wrap;html=1;" parent="YUTbw6dWfOsZHbmSQwE_-8" vertex="1">
          <mxGeometry x="30" width="90" height="30" as="geometry">
            <mxRectangle width="90" height="30" as="alternateBounds" />
          </mxGeometry>
        </mxCell>
        <mxCell id="YUTbw6dWfOsZHbmSQwE_-11" value="" style="shape=tableRow;horizontal=0;startSize=0;swimlaneHead=0;swimlaneBody=0;fillColor=none;collapsible=0;dropTarget=0;points=[[0,0.5],[1,0.5]];portConstraint=eastwest;top=0;left=0;right=0;bottom=0;" parent="YUTbw6dWfOsZHbmSQwE_-1" vertex="1">
          <mxGeometry y="120" width="120" height="30" as="geometry" />
        </mxCell>
        <mxCell id="YUTbw6dWfOsZHbmSQwE_-12" value="" style="shape=partialRectangle;connectable=0;fillColor=none;top=0;left=0;bottom=0;right=0;editable=1;overflow=hidden;whiteSpace=wrap;html=1;" parent="YUTbw6dWfOsZHbmSQwE_-11" vertex="1">
          <mxGeometry width="30" height="30" as="geometry">
            <mxRectangle width="30" height="30" as="alternateBounds" />
          </mxGeometry>
        </mxCell>
        <mxCell id="YUTbw6dWfOsZHbmSQwE_-13" value="Row 3" style="shape=partialRectangle;connectable=0;fillColor=none;top=0;left=0;bottom=0;right=0;align=left;spacingLeft=6;overflow=hidden;whiteSpace=wrap;html=1;" parent="YUTbw6dWfOsZHbmSQwE_-11" vertex="1">
          <mxGeometry x="30" width="90" height="30" as="geometry">
            <mxRectangle width="90" height="30" as="alternateBounds" />
          </mxGeometry>
        </mxCell>
        <mxCell id="YUTbw6dWfOsZHbmSQwE_-27" value="Accounts" style="shape=table;startSize=30;container=1;collapsible=1;childLayout=tableLayout;fixedRows=1;rowLines=0;fontStyle=1;align=center;resizeLast=1;html=1;swimlaneFillColor=none;" parent="1" vertex="1" collapsed="1">
          <mxGeometry x="-705" y="-800" width="90" height="30" as="geometry">
            <mxRectangle x="-760" y="-840" width="120" height="150" as="alternateBounds" />
          </mxGeometry>
        </mxCell>
        <mxCell id="YUTbw6dWfOsZHbmSQwE_-28" value="" style="shape=tableRow;horizontal=0;startSize=0;swimlaneHead=0;swimlaneBody=0;fillColor=none;collapsible=0;dropTarget=0;points=[[0,0.5],[1,0.5]];portConstraint=eastwest;top=0;left=0;right=0;bottom=1;" parent="YUTbw6dWfOsZHbmSQwE_-27" vertex="1">
          <mxGeometry y="30" width="120" height="30" as="geometry" />
        </mxCell>
        <mxCell id="YUTbw6dWfOsZHbmSQwE_-29" value="PK" style="shape=partialRectangle;connectable=0;fillColor=none;top=0;left=0;bottom=0;right=0;fontStyle=1;overflow=hidden;whiteSpace=wrap;html=1;" parent="YUTbw6dWfOsZHbmSQwE_-28" vertex="1">
          <mxGeometry width="30" height="30" as="geometry">
            <mxRectangle width="30" height="30" as="alternateBounds" />
          </mxGeometry>
        </mxCell>
        <mxCell id="YUTbw6dWfOsZHbmSQwE_-30" value="UniqueID" style="shape=partialRectangle;connectable=0;fillColor=none;top=0;left=0;bottom=0;right=0;align=left;spacingLeft=6;fontStyle=5;overflow=hidden;whiteSpace=wrap;html=1;" parent="YUTbw6dWfOsZHbmSQwE_-28" vertex="1">
          <mxGeometry x="30" width="90" height="30" as="geometry">
            <mxRectangle width="90" height="30" as="alternateBounds" />
          </mxGeometry>
        </mxCell>
        <mxCell id="YUTbw6dWfOsZHbmSQwE_-31" value="" style="shape=tableRow;horizontal=0;startSize=0;swimlaneHead=0;swimlaneBody=0;fillColor=none;collapsible=0;dropTarget=0;points=[[0,0.5],[1,0.5]];portConstraint=eastwest;top=0;left=0;right=0;bottom=0;" parent="YUTbw6dWfOsZHbmSQwE_-27" vertex="1">
          <mxGeometry y="60" width="120" height="30" as="geometry" />
        </mxCell>
        <mxCell id="YUTbw6dWfOsZHbmSQwE_-32" value="" style="shape=partialRectangle;connectable=0;fillColor=none;top=0;left=0;bottom=0;right=0;editable=1;overflow=hidden;whiteSpace=wrap;html=1;" parent="YUTbw6dWfOsZHbmSQwE_-31" vertex="1">
          <mxGeometry width="30" height="30" as="geometry">
            <mxRectangle width="30" height="30" as="alternateBounds" />
          </mxGeometry>
        </mxCell>
        <mxCell id="YUTbw6dWfOsZHbmSQwE_-33" value="Row 1" style="shape=partialRectangle;connectable=0;fillColor=none;top=0;left=0;bottom=0;right=0;align=left;spacingLeft=6;overflow=hidden;whiteSpace=wrap;html=1;" parent="YUTbw6dWfOsZHbmSQwE_-31" vertex="1">
          <mxGeometry x="30" width="90" height="30" as="geometry">
            <mxRectangle width="90" height="30" as="alternateBounds" />
          </mxGeometry>
        </mxCell>
        <mxCell id="YUTbw6dWfOsZHbmSQwE_-34" value="" style="shape=tableRow;horizontal=0;startSize=0;swimlaneHead=0;swimlaneBody=0;fillColor=none;collapsible=0;dropTarget=0;points=[[0,0.5],[1,0.5]];portConstraint=eastwest;top=0;left=0;right=0;bottom=0;" parent="YUTbw6dWfOsZHbmSQwE_-27" vertex="1">
          <mxGeometry y="90" width="120" height="30" as="geometry" />
        </mxCell>
        <mxCell id="YUTbw6dWfOsZHbmSQwE_-35" value="" style="shape=partialRectangle;connectable=0;fillColor=none;top=0;left=0;bottom=0;right=0;editable=1;overflow=hidden;whiteSpace=wrap;html=1;" parent="YUTbw6dWfOsZHbmSQwE_-34" vertex="1">
          <mxGeometry width="30" height="30" as="geometry">
            <mxRectangle width="30" height="30" as="alternateBounds" />
          </mxGeometry>
        </mxCell>
        <mxCell id="YUTbw6dWfOsZHbmSQwE_-36" value="Row 2" style="shape=partialRectangle;connectable=0;fillColor=none;top=0;left=0;bottom=0;right=0;align=left;spacingLeft=6;overflow=hidden;whiteSpace=wrap;html=1;" parent="YUTbw6dWfOsZHbmSQwE_-34" vertex="1">
          <mxGeometry x="30" width="90" height="30" as="geometry">
            <mxRectangle width="90" height="30" as="alternateBounds" />
          </mxGeometry>
        </mxCell>
        <mxCell id="YUTbw6dWfOsZHbmSQwE_-37" value="" style="shape=tableRow;horizontal=0;startSize=0;swimlaneHead=0;swimlaneBody=0;fillColor=none;collapsible=0;dropTarget=0;points=[[0,0.5],[1,0.5]];portConstraint=eastwest;top=0;left=0;right=0;bottom=0;" parent="YUTbw6dWfOsZHbmSQwE_-27" vertex="1">
          <mxGeometry y="120" width="120" height="30" as="geometry" />
        </mxCell>
        <mxCell id="YUTbw6dWfOsZHbmSQwE_-38" value="" style="shape=partialRectangle;connectable=0;fillColor=none;top=0;left=0;bottom=0;right=0;editable=1;overflow=hidden;whiteSpace=wrap;html=1;" parent="YUTbw6dWfOsZHbmSQwE_-37" vertex="1">
          <mxGeometry width="30" height="30" as="geometry">
            <mxRectangle width="30" height="30" as="alternateBounds" />
          </mxGeometry>
        </mxCell>
        <mxCell id="YUTbw6dWfOsZHbmSQwE_-39" value="Row 3" style="shape=partialRectangle;connectable=0;fillColor=none;top=0;left=0;bottom=0;right=0;align=left;spacingLeft=6;overflow=hidden;whiteSpace=wrap;html=1;" parent="YUTbw6dWfOsZHbmSQwE_-37" vertex="1">
          <mxGeometry x="30" width="90" height="30" as="geometry">
            <mxRectangle width="90" height="30" as="alternateBounds" />
          </mxGeometry>
        </mxCell>
        <mxCell id="YUTbw6dWfOsZHbmSQwE_-53" value="Details" style="shape=table;startSize=30;container=1;collapsible=1;childLayout=tableLayout;fixedRows=1;rowLines=0;fontStyle=1;align=center;resizeLast=1;html=1;swimlaneFillColor=none;" parent="1" vertex="1" collapsed="1">
          <mxGeometry x="-705" y="-750" width="90" height="30" as="geometry">
            <mxRectangle x="-760" y="-840" width="120" height="150" as="alternateBounds" />
          </mxGeometry>
        </mxCell>
        <mxCell id="YUTbw6dWfOsZHbmSQwE_-54" value="" style="shape=tableRow;horizontal=0;startSize=0;swimlaneHead=0;swimlaneBody=0;fillColor=none;collapsible=0;dropTarget=0;points=[[0,0.5],[1,0.5]];portConstraint=eastwest;top=0;left=0;right=0;bottom=1;" parent="YUTbw6dWfOsZHbmSQwE_-53" vertex="1">
          <mxGeometry y="30" width="120" height="30" as="geometry" />
        </mxCell>
        <mxCell id="YUTbw6dWfOsZHbmSQwE_-55" value="PK" style="shape=partialRectangle;connectable=0;fillColor=none;top=0;left=0;bottom=0;right=0;fontStyle=1;overflow=hidden;whiteSpace=wrap;html=1;" parent="YUTbw6dWfOsZHbmSQwE_-54" vertex="1">
          <mxGeometry width="30" height="30" as="geometry">
            <mxRectangle width="30" height="30" as="alternateBounds" />
          </mxGeometry>
        </mxCell>
        <mxCell id="YUTbw6dWfOsZHbmSQwE_-56" value="UniqueID" style="shape=partialRectangle;connectable=0;fillColor=none;top=0;left=0;bottom=0;right=0;align=left;spacingLeft=6;fontStyle=5;overflow=hidden;whiteSpace=wrap;html=1;" parent="YUTbw6dWfOsZHbmSQwE_-54" vertex="1">
          <mxGeometry x="30" width="90" height="30" as="geometry">
            <mxRectangle width="90" height="30" as="alternateBounds" />
          </mxGeometry>
        </mxCell>
        <mxCell id="YUTbw6dWfOsZHbmSQwE_-57" value="" style="shape=tableRow;horizontal=0;startSize=0;swimlaneHead=0;swimlaneBody=0;fillColor=none;collapsible=0;dropTarget=0;points=[[0,0.5],[1,0.5]];portConstraint=eastwest;top=0;left=0;right=0;bottom=0;" parent="YUTbw6dWfOsZHbmSQwE_-53" vertex="1">
          <mxGeometry y="60" width="120" height="30" as="geometry" />
        </mxCell>
        <mxCell id="YUTbw6dWfOsZHbmSQwE_-58" value="" style="shape=partialRectangle;connectable=0;fillColor=none;top=0;left=0;bottom=0;right=0;editable=1;overflow=hidden;whiteSpace=wrap;html=1;" parent="YUTbw6dWfOsZHbmSQwE_-57" vertex="1">
          <mxGeometry width="30" height="30" as="geometry">
            <mxRectangle width="30" height="30" as="alternateBounds" />
          </mxGeometry>
        </mxCell>
        <mxCell id="YUTbw6dWfOsZHbmSQwE_-59" value="Row 1" style="shape=partialRectangle;connectable=0;fillColor=none;top=0;left=0;bottom=0;right=0;align=left;spacingLeft=6;overflow=hidden;whiteSpace=wrap;html=1;" parent="YUTbw6dWfOsZHbmSQwE_-57" vertex="1">
          <mxGeometry x="30" width="90" height="30" as="geometry">
            <mxRectangle width="90" height="30" as="alternateBounds" />
          </mxGeometry>
        </mxCell>
        <mxCell id="YUTbw6dWfOsZHbmSQwE_-60" value="" style="shape=tableRow;horizontal=0;startSize=0;swimlaneHead=0;swimlaneBody=0;fillColor=none;collapsible=0;dropTarget=0;points=[[0,0.5],[1,0.5]];portConstraint=eastwest;top=0;left=0;right=0;bottom=0;" parent="YUTbw6dWfOsZHbmSQwE_-53" vertex="1">
          <mxGeometry y="90" width="120" height="30" as="geometry" />
        </mxCell>
        <mxCell id="YUTbw6dWfOsZHbmSQwE_-61" value="" style="shape=partialRectangle;connectable=0;fillColor=none;top=0;left=0;bottom=0;right=0;editable=1;overflow=hidden;whiteSpace=wrap;html=1;" parent="YUTbw6dWfOsZHbmSQwE_-60" vertex="1">
          <mxGeometry width="30" height="30" as="geometry">
            <mxRectangle width="30" height="30" as="alternateBounds" />
          </mxGeometry>
        </mxCell>
        <mxCell id="YUTbw6dWfOsZHbmSQwE_-62" value="Row 2" style="shape=partialRectangle;connectable=0;fillColor=none;top=0;left=0;bottom=0;right=0;align=left;spacingLeft=6;overflow=hidden;whiteSpace=wrap;html=1;" parent="YUTbw6dWfOsZHbmSQwE_-60" vertex="1">
          <mxGeometry x="30" width="90" height="30" as="geometry">
            <mxRectangle width="90" height="30" as="alternateBounds" />
          </mxGeometry>
        </mxCell>
        <mxCell id="YUTbw6dWfOsZHbmSQwE_-63" value="" style="shape=tableRow;horizontal=0;startSize=0;swimlaneHead=0;swimlaneBody=0;fillColor=none;collapsible=0;dropTarget=0;points=[[0,0.5],[1,0.5]];portConstraint=eastwest;top=0;left=0;right=0;bottom=0;" parent="YUTbw6dWfOsZHbmSQwE_-53" vertex="1">
          <mxGeometry y="120" width="120" height="30" as="geometry" />
        </mxCell>
        <mxCell id="YUTbw6dWfOsZHbmSQwE_-64" value="" style="shape=partialRectangle;connectable=0;fillColor=none;top=0;left=0;bottom=0;right=0;editable=1;overflow=hidden;whiteSpace=wrap;html=1;" parent="YUTbw6dWfOsZHbmSQwE_-63" vertex="1">
          <mxGeometry width="30" height="30" as="geometry">
            <mxRectangle width="30" height="30" as="alternateBounds" />
          </mxGeometry>
        </mxCell>
        <mxCell id="YUTbw6dWfOsZHbmSQwE_-65" value="Row 3" style="shape=partialRectangle;connectable=0;fillColor=none;top=0;left=0;bottom=0;right=0;align=left;spacingLeft=6;overflow=hidden;whiteSpace=wrap;html=1;" parent="YUTbw6dWfOsZHbmSQwE_-63" vertex="1">
          <mxGeometry x="30" width="90" height="30" as="geometry">
            <mxRectangle width="90" height="30" as="alternateBounds" />
          </mxGeometry>
        </mxCell>
        <mxCell id="dUCaKXgbbs238n5Zq2bG-1" value="" style="shape=image;imageAspect=0;aspect=fixed;verticalLabelPosition=bottom;verticalAlign=top;image=data:image/png,iVBORw0KGgoAAAANSUhEUgAAAwAAAADECAYAAAAoEEaxAAAACXBIWXMAAA7EAAAOxAGVKw4bAAAgAElEQVR4nOy9e5gcR3kv/L7Vl7ns7OxqdrVardaSrJtlSRa2LGxhZGNsY5uYGMIdE2IMXwgcwpPkcPLx8ZAcHp4c4PARIBySQEKAQ0i4JP4IMTdjbONjjBFGlmVblmTdLMvSarXSrla7q73MdFd9f8z0THV1VV92ZndmpXqfZ7e76r1W/bq6q7qragDKRCAehcnNp41m+5+rOJtVhlapO41/c2y0St1p/Jtjo1XqTuPfHButUnca/+bYaJW60/g3yQbhMsRj2PlsAlDxZflRMUTFlaQMjZSNA0KSMjSqvGF8jX/jZDX+yfkaf41/WJ7GX+Mvnmv8Zx+Xxn/uZBcU/jLgZReHyqB4HiYrsxkpa23fsMq84YprwE9RdlVlk8UtsyvmRZVflg6TjbIrk4t7sSW1GxZn0/GXyMWV1fjHsxsWp8Zf46/x1/hr/OW+Nf5BOY1/tGyUXZlcw/FHiXJLkbG2r2BuXftTMEk/PXLqNaVf7d3b7Jg0adKkSZMmTZo0aVqoZEB5VICVPzbH/khSH/bNL/uf0JZ+IxqkHdP2WkzZ99GTIzP12IxBF6pNEWs+3ZL4a5sNtanxv7htavwvbpsa/4vbpsb/4rYZwN+onHh/SQYDJKYcL09jyHhxMOv2q9+MhfZPIiEmIALY5mpM2SX60pnHoORAxT/EjJVB/ApLIsvbD+NDhEwSex4ljROhjIEnz6CF8Y/pH2LKavw1/hp/jb/GX+MfRRp/jf9Fgb9XgTw4/DwhmoDH8+PwAOR2AQDAfM1Vq4ylhV+gZfTz+cxxJ+ng2d8r/WzXAzK9MJsxeTL+XPBk8YTVTVyeyI/iyc552abg30SejK/xj+bJ4tH4q3myeDT+8jjnkyfja/yjebJ4NP5qniwejb88zvnkyfgXLP6EYxLwg0YjDPAk44tyFMIvjFpGVy5tdLV/GUzSL/LQNLJkSeeXrVuuWimxHycWsYxhsdIQnuiTSPhE4Ikk6snqRuZfVUYx3iheS+IvxCPzK6tTjb/GP04sGn+/HY2/xp+PReOv8Rfj0fgHeaLPBYk/PwUIOQE2i6MsWBnJdHn/zHrt1f8d27N/gIj+RcqMASACElwEBlmJAPfR0+eKgn9VTKrYwz5jkRAe42Q8v0zgo8CT/cnqHTkeb1dV72KMJIQnlqHl8Ff8ifHKPl9q/P1xa/w1/hr/8Ng1/hp/jb/GX0YXPP78ImDeoGqhSFhapQ9cXqS+fduW12F3x18jIalqFfCECJX1AOsxlxmlh0/uAJeq/PMjMVU8LIQv2pRVNJ2FvhijCBRG6Ef5j9Ln/atkm4J/RKxJ/Wv8Nf6ifzGt8df4a/yDshp/dUzAyWn8Nf4LFn+EFiLrhk2ryIqeh9AyVgJgJWQGvnPEajGY647RkyNvKT3w1APNi1qTJk2aNGnSpEmTpoVDRDiq+FH59eoDWVrIkb7CV8EyVpbf8lcYvjEKP6gBQMPIk95F3noAla+4NBf6JMZ5lP8ojKL048g3Hf859BWXNP7xbWr84+lr/OPna/zD7Wr8Z+crLmn849vU+MfTb3n8SYRjcWGFd6SSvLr0ze0bPg7Z1E2+af/8B43qkfsiAABoGquwK/cl69r1OUUsYhllcXuxzqZR8GUSfaoW3cjmyol5Yl2Ji3bEWFT6/Lks9pbAH4L1L9oCTk7mV6Wv8df4a/zVsWv8Nf4y0vhHx8KnNf716Wv81XbnDH9+EbBITHKuyqtL375ty13l/f7RrHX6EQArnf3qnB/RRWUUYJvrwDKQnT73KJsqupI4kpRFFr9oLywt8xmWT0JkZfHFiTFM3/MpLk5Joh8W02z0ZTp8XpT9JPoaf43/bGOR5Wv8Nf5RPsPyNf5yHT5P4y/X1/jHy9P4+49V/BHijcDmjG+9atOVZMWSn6Jl9IToRhJz6TQ9NXp36ac7721kfPPIj6Jmx6f5Gn/Nnzt+FDU7Ps3X+Gv+3PGjqNnxaf4FiH/cRcCqzxZxdb0AfGRuXNFtbF75Y8jY14g7fpYHK8nWKLOSM0iPn3lt6eFndgv+64l9Nrqyzzfz6b/RNCf4J/DbrDrU+JdJ459cD0Dj7+nCLPU1/hp/jX/zSeOfXA9gAeDP97CjgOJHDzKZRPqYy9j2617+Lcim3urv/Asdf++jhSjCEy8+U9rJzo7dUfzxk0OzjDGswqPqIIrqaQyN9C/Tn1f8m6Af14fGf3a+W10/rg+N/+x8t7p+XB8a/9n5bnX9uD40/rPz3er6cX1cVPgTgUElgiKfRvBj6Vs3bf5/IJN6Y/DNv+Stv2x8IO5g65FtboVM5gtkbV9W8O+Bq4qfBz+Mr7r4iJCWHaPqLywt+hf9yfyLNsLiB5hH/Jugr/HX+Gv8Nf4afzkPoLXxq1df46/x1/gL8RscQ1w0QMD/YwniAgIC/sUFfJecd+LJV1fzWrdu+T3S0/k5NEiq5rFiAsWpPxUX3kBBNlMIWJWPiAApc6NRyE/RQwO/qvxImM+/UBaPH6f8vLwYhaz8no6svohEPol/MV4U5D0iHD/M/7zhD42p/2b7B0Fe46/x1/hr/DX+Gn+Nv9+/xr9F8TcgWBleGrkj/6fiecSPUALy1qs2XUX6u7+DptHpK7K39z+rnIs8FWGQj4gIpvEKXNJ5mB4ceA6CACGXJysjg2Cl8aMqWZ2hhA8CX7xIVP5lIPOjSD5PxIvXAYEvXgT8xTcv+Ct0xLoXy0Mk8ir/Mh2Nv8Zf46/x1/hr/DX+tXyNvzyuiwZ/seLmlKxt6/vIqiU/hbS9ueyZj8dLA1R/8TdQrzISZLgkKzkD9NjpN5UeeXZHQwoQTd5or1n6C4Eu5Dq6kMvWKLqQ6+hCLluj6EKuowu5bI2iC7mOLuSyNYou5DpacGUz5ssR6WrPmlev+VfIpF5ZnvcfMohDnsdRdWCgSAsqaJB2bEtvw+78T+kLp0YbUpBwEkdf862/EOhCrqMLuWyNogu5ji7ksjWKLuQ6upDL1ii6kOvoQi5bo+hCrqMFVzYSM58IeVF8H6FtmtZNL/scZFO3Vxf9Mu8rC0eBPFbJ8wxVvgowIS2lSr5tbjKWLPqqef2mwmzjl5BMPywt5kXxZbxZ138M+1GyjfA/1/aj9JP4jyKNf3L/c21f4x9OzcZnru1r/MOp2fjMtX2Nfzg1G5+5tq/xDycp31sELJt/RKA2l0q1SELky2yh9Zqr7sGu9r9AQmpfHFB46y/Nq6T52UDizCXm8cWvAVgxiQCmsQoJsdjp0UfYVJFJyic49JUPBFkm4cvmiol5vE9xvhnPV81V4/XFuGQxAScjfm5RYiXxVTf+kjqVzQXkyy8umpHliecqfR4PVflAkNH4a/w1/hp/jb/GH0Djr/G/QPE3OONMEBSPorKMT8Wj9aqNV5Fl3V9H08iDimRTeTwKRIIKfuXEKwVnExEBbPNlpKv9RffAwG7wV7hXdrGiZReU50HF5y9mJuFTzgaT2OLrT8UHCIKqutDFcomxiPE2HP+Q8sv4wNkT7YrlU/FF/KLw1fhr/DX+Gn+Nv8Zf41+zIR41/rXYLxj8PSNzQubG5d3Gyy59qLzotxIP89wybvzEhVHdDpQzxI+zfHIyXUleJc1KziA9MXxH6aGnd9VZNE2aNGnSpEmTJk2aFiTN2SJgtE3TeuWGL0IufbtkZk7t3EszgefxfZ1/5Dr5Ell+3COOYQEADZKDlLURsukfshPDk8lLpUmTJk2aNGnSpEnTwibCHfk/layKF7Bh3nzl70M+8/u17T65P4bBPBTOxTTfo0dBDkNsCX+Ytrcby7o+irmMGRJ/nPrijzIZWTqJvsxOGE9Fon8Z1g3HP4F+WAyy2OPoizxVWhafxl9tR+MvP4b50PiH62v8w32I8UX5CItH468mjb/G/6LD32NSqM0vohJFPl/ltKpv3njFetLT8RkkxPZPRQLhHLi8CmFUmoFvZ6CAPSEt7CyECID57PutV216nSp+RflEUgHrzbHi61Ykcc4bb0cmL9pR+ZDFJNqjEXl14w/y8qn0Rb+8vljmuPoeX1WXvL5oX+MftCWzo/EPnmv8Nf4af42/xl/jvyDwF0cVskrmjYqBB85JV3vWWFr4Mhikp9bv5t7ge7v2+MjjVf5EAV8f3nvD7+WjMJ4QbEl2FkIDs1ho/6x54xVrJOXjKQok/ijWowiKCtyo+hVj4IGlknzRVlz/DcFfiE+WnyS+sPKLlNS/zL7GP8jT+AfzNP5Bnxp/P1/jL89PEp/GX+Ov8ZfLNwT/hi8Ctu+85r9jd8fHEbHiuDIhn1XOq1OChEXADMpv9z1ZFHS9tDdAQG5xQPWUm/wf+NEw3gYCAwZsfOq77hMH3uu+OKTXA2jSpEmTJk2aNGm6KEg1wpkVmTe/7Dos5D+MUOn882/zEeRz+WUrhFGi69MBbh2BZ5sT9N7887OOeBsAgIiAucybjatW3yUpymzrIIleQ+te0FeN0pPYqDeGZuk3gjT+9cfQLP1GkMa//hiapd8I0vjXH0Oz9BtBGv/6Y2iWfiPoosFftguQOEE/nufeQs7ctOLbYJurkO/Uq74x+Hb38d7W818LFLpeZx4lQlWewKqa5rYYZQBIkIBlXGks7rzfPTJ4RhJdUvL2Y42jL5MR8wj490KKa1NcFJHE3mzL3ir6SUmGl8Z/9tRs/aSk8Y+OKwk1Wz8pafyj40pCzdZPShr/6LiSULP1k9JFjb9qfpQ49yiSb25b9xHI2Fv9L/T5yfuM+wNJJ56T803bF/SFN/l+Pd4f75P3xfkHADSN5diV+6SxYnE2rHzgpzB+2IKMpPb5BTEiPyots8/ba0R8FwJfVb8a/4uDr/FvbXzmmq/xb2185pqv8W9tfOaaf1HjL3vHTjgh2aKFgFPr1VdsISuWPIQGyVfn6Yu/Mca4zj6W5+H7O/kI/t19gFsbILNTMxfpzxs4VOX8/hgDhw2P/1Hxvh1fl5RPVQcy0FVySeqz2f4S46+QixOv2AgXQv1c6P40/he3P43/xe1P439x+9P4X0T+wqYAiZ8OxDQFAIa5jGVevebbYJtr0ZubL1t8W53/z2rz+KvETxni9TH4op/f99+b9y8uIvZMen48e7xdzhYiErCMK7C380f08OBZzqPs0wvheJ7DOJ/Uoj7jyPx5vrz6RqiBq8KHl5fxgeOHfYaKhT/nT+QDJ0PAX09iHSaNN2k8UeVTyWn8o/U1/hp/jX+4ndn60/jL49X4a/w1/kE5gIT1GfeXgMXAqmnrti0fwI629yE/uZ6vE1/nnGPxi3QRoLprj3fkO+6+t/7CYKEqz2o8X7TCQmIm6LFKpkEWISFt9MXTP4WiEzZyUtbFHJB48agupnrTceNIkmYR6XrtJ0k3kjT+Gv/59qXxry/dSNL4a/zn25fGv750I+mCwj/uAEBK5lWrlxsrl/wLGiTn/8FdbrcefstO8U08Mm6hrviW3iP0Dwg8HVHPp4L+GJD5ecACMSACgGmsw672p+ihkwdnVSGaNGnSpEmTJk2aNLU4eQMA2Sca2Scbnofm9Ru/gGn7lRj4sS3g0vzIAAQ5WR7zyzMQOvkIQZsg16n+FoDoX24PCdpoWauB0f9gQ+dmosqv+FPp8KMwvn7FczFvNv7j4Jk0rfIv8xdW/jj6s/Ufp/5V9ccidDT+cv8af42/xl/jr/HX+Gv8Fxj+RiXhkWdElvbx7Fu33ITd7Z9CQsygOK8SRaKM4B6l7sPthX1NiCKD9GFb5pS776VfC4reH1UcPfIA4OdqiQAhx6fgL5zIF/WjSIVfvWmVf5m8F7+Yz8BfPibY4NOz0fd0SAJ9vn6j9DX+8fxp/DX+Gn+Nv5iv8df4a/xbCH9DUYiwNMVcxjKvXPXPaJkra1JiHcSJ1ZNTHVX2wtKCDcYqrDjxACAigknW45LOH1YWBPMg8aB5Ayex/jCC7110Ho+/CCHkKCPVxZgEz6RpseFQCALilT/qhsI3FjHN6/ONBCP4fP0SCDZy8YaWJD6Nv8Zf46/x1/hr/DX+Gn8Av38Q5GT8lsLfkBSSD5IPtlqJ9muuejd2tr0fUQxOjJn52b6tP0V5WR2AwJcRj7uILQBIpydJYuP9EuwkgAY9OPAzoJQKCrxBCv768f74ryr8RSM6FS9a2R/vi29wvF/xogzDDyR2EuEvxAwCHyBYP6oyyRoFE3iyeHkd8SYgxgSS8kXF5cnwNjT+Gn8vFo2/xp+3w8ej8df4a/z99aPxb1H8ZT3jUDLW9hXMay77DabNNQAItTfsngs+wbnn8/lqkO70E5Zf+SfmR/pgkuoXfHhQIAJz3DP05Nk7Sg/seiLoSJMmTZo0adKkSZOmhUkk4RGMTSveB6lK5x8AfItsfcMJLw8hsIiX36XH65WjmM+b4fNRLh/qQ5Ln88HZruSjaXRjZ9uHSVfOltWDpA7FdGRd1qFLQnTj2BL1k8QsUuJraJYx16sbx9Z8lEHjP7uY69XV+Pt1Nf6N1U1qqx5djb/GX+Pf+DguOvyTfAEgxsblfebWtU+hYXQDANT23q8cq7vugP+tOv+loPqVQNQR0uJbeUCobudZnUrEfWVAwb8Xg+efT7OK0eoHA29QAb54mMsm6dDo75V+svNBqH0Smi2RBthQ2UqaboTPJPz5iLee+KJk56P+6rGl8df4a/w1/nHTjfCZhK/x1/hr/FsQf3E0wo8sxDQ11vV/CAzSXX4rz0+p4TvQANXOvPjrv9U8bjpStbPPf1EQplt5+/kzrKiy2qCgqsOl+a8K/BQr3y8Ic7HzYtUfB0NAA7OYz36ILC14XwHC6gskaeDSVEjHtSXLo4o0cGlej0J0rJH4R5RPJJUuUaTDyiPzI8YqyiSNX1ZfKn8y+zIZ3q7GX+MfN9aoPI2/xl+WBi6t8df4i+XR+Gv8fbYQghUkpcrb/6fRNAoqmeaSuIajMXzmUu8rwAMQrB++zkLrLyFfJqvS9/Lj2IcQmUbGf7HwNf4XN1/jf3HzNf4XN1/jf3HzFzz+JscA4dxHlbf/5c6/rK8sTr/x8STyIh84fal8iBHZuvEkFGIaDZLFfPZPyNLCo/TkyLREJFb9Kfji6JA/l9lS2ZfpiCPDKBtRvEbwG+lfVr6k+mL+bMqn8Y/Pb6R/jX+4jsY/Wl/M1/iHk8Y/PE/jH00a/2AMTcPfkAgEyNi4vM+4dMk/oYEZAOA6y/wi3hAD/Dz8wFY8UJuCU03zCYm8qOwtFA6VDYxYJPEp9A1jGeYzO+jBgcMRwSQl2VZajbTdatRK5RO3yWoGafybZ0vjP//USuXT+M8/tVL5NP7zT61UPo0/1EYgBPwjIv9ngssv+b/Kb/+5HX98W4qq0gKvOtc/6o8vg4TvrQUIUBybFbv87qiBLWc5P4DlrwAdbR/CXMb71WPZpxZl/UFE/UbYiqMv8mX2mh1fvfqN5IvUiPppdv1q/OPzRdL4a/w1/nMbX736Gv/4fJm9ZsdXr77GPz5fZk+qz2dKP08Ya/sKkE19AFXTe3wUIRPLRgx71Tf+IV8VouwK237WDItfBiqnKfMG8/qN2zhhvlIJyOsvChTZuSpP9fmISPgy3zTCp8p+vfGpqJ7yzcZ/nPpJal/jH09fRhp/ta+4/vmjxj8+X+Ov8df4x7Nfb3wq0virfcX1zx9nhT8RmKIxQtb33wWm0SsJkCMm/2Eu5uWLXzlYUE7WiWfcCeO/2DBOTzQvs8WiZRhfhiAPDSNP2tL3oGXKwK7WF9QuBu+PT4vyfJpI+AE8EtiT2RfnikXiL+jJ/IfVh+h/NvaTlG++4xflNf7h/jX+4fZl9sLsh9mT2df4a/xV9jX+ye2L8hr/cP8a/3D7Mnth9sPsyewH8A99JY9tGdt+/TVPYTq1QTl3n3Ensj37QSEjHmX8qr7EfqJ4JHwEP7PqA8H/GwY1Hea4g+6JM692Hnp6f9C5Jk2aNGnSpEmTJk2tTySMaV2/4RZI2+urHWNv6k3gV3m9Uy4NQhr5ffgFOX6qvvcjX76X/V7HHPyLfaW/Agzc4ANrcmI8/Am/1KAaDz//p2LTJL2kPfNmZYVp0qRJkyZNmjRp0tTiZIL8M0OZ2jMfQAAS/KEtjgKda1FW9ZFBlu+9mUcFW/Qh44nuUX4M+JQqB120Z99hrO//irv/+AjHEj/hQB28euXFzz9x7Qfxb26+x0uar/LRDPnZ8DT+fp7GP5m8xl/jz5PGX+Mfx77Gv/Hys+HNK/6mmOGlzStWrsRc+pZAh9n3q70Quod+9bcBVDKMe5NfzRNkPX9SfS4G/ncE5MHUviBExRz4UsCRSdYY65bd4O4//n0uV5xHJqZBwpfliyTj8XiFzQPj54oljUc2KFTFKbMvSyexH1U/svKrYpPZF33IbIWVR1XXqrTMnspWWExensZfzRNjk9kXfchsafw1/rysxl8do8Zf46/xV6dl9lS2wmLy8hqGPxGYVcPGZf13AWJa2C+TmwpUyZZ2pIX5+SjYEKfw+GQFU6jo/POyGBg1yIWrviSLhH3+mNInEmJjJnV3ZUtQ2YWsShOQ1zcRZFWNQcYX9fm0qqGJaSn+Ifoyf7LyifEmjR+E87D4eL7MvhifqCPGJ4tHlfbiEeMT0xr/ZPGDcB4WH8/X+Pt9RsWn8df4a/w1/iJf438R4C/t5qJtmvabtz+HGWudf598b2Ett8iX51fz0KcS+FIgO1fxIUQnLl9YEhCg2PzyCXPoEH3pzM2lh5/eo9DQpEmTJk2aNGnSpKklSRwNAQCA+Yr12yFtram9NWfcwlhu4SyA8EWA/zTA7aTDhDfq/OABoWa/qiPZttPXuZdsL4p8UtAHwT+/rSi/AJjfBlT8SMAvcjZID7ZnboW5J9mIVdPFQxr/i5s0/hc3afwvbtL4X9w05/hLjZOezncAAKnujY++3jXUOtTI7cUv7tWPtXxva03xtwJ8nW7OhTen3+uoVzv/4taeWJMBTocfTPDEhNh8+lw5fE582xFVlhogYC79JmNFTzbopKHkferSdHGSxv/iJo3/xU0a/4ubNP4XN805/uL8IiBd7WlI229EfttPAPB1lhEr++ZzxH8FUC3GrQ4khClF4twbb21AddtPflEu4/jc63vG2xLm+3uyni1+O1G+jPx6A9E+cPIAAKaxiWxYvlmsPy4dZy5bWF7UyC/Kvmx+2Wx9hflW6Sctv8gP04+ieuNL6lPjHy6j8U8WTxz/Gv9w/Sh/Gv/4vsJ8q/Q1/rOPJ45/jX+4fpQ/jT8nVF0UYGxZcwtYRnc5yb3Fr+7Gg/435l5HmgnTf5jArxKfrgwkeFkm0WWcPAjynj/kOun8LwQzjl/9osGF4/0AWLWsXHwodPq9wQMAoEHyaJveNCBx0QY/ciMKPp8GiF5IIpMP4BfhP0yeT0NEOo5+VHxhvsIW0UTFxsuDIi1SFB8kfNE+n6/x1/hr/DX+fFrki3Y0/hr/sLRMXuOv1tf4B/0F5HkwAAAodra9FgD8U3PE3Xq8N+X8lBrfS3zuTTs/cPDxAXwdbd+aAkGWH3RU3+TzIvxAhUuL6xaktvl4oJbmBz0yXwCA+ewdpKvdriTDLj4QZFR8UU5lTwSa900F2Xr4Yjxh+lHxiPUjs+XJqfjiRa1Ki3GLjY6PQ2wUYfHwdlW+NP4af41/UF7jr/Hn49f4B/minMqexl/j3xD8eQagbZqYst6A4kJfcfvO6im/KJgJ0+X56TXiHHtP3ntjz9lmnC1xkS8fF78G2Le+AH1qvtiZP+mLuSouDHx4+1X5igzBNcaW1Zsq0mLF86CBICMDnZeJuthUjYfXkfkN8ynTpRD0JZLvGhLOZbaiKKwhi/Y9nsquqr7FBiGLNyweVfn4c42/xj9uPGH+NP4af41/UIbnafz9pPH3y2n8FWTyCWPzpVvANnuD8/JROIL6LXxAR6Gn+sVgDOYxlxYB0UQCRLpVZ+gPgHG2AiHxawNU8QE3iBGOBilgW2YbAOySOI66KONSlHzY6FVK2JUn5stW/gG2pa9NGEtsYtOlg/TY0N+6z58oSthJ6yaqwcyHTix58xXrt5Hu/N0J7cQmNj71UOmRZ+/lshLjH0GNvD4bhfOCwX+efQBo/DX+Gv9Z6ZjXXf460tV+R4jcfBMFwJNgkjHsbBugp8+NsJNnh9wXh46zM2OjCp2Wxh+78p3WKy77S0Cc6w1TZk+I0wBwErOpMwxgiJ4YHqQDIwPs1OgQm5hyQjQXfPv3DwAu7b0d5COX5tJM6Shz3CLms5sCU3LqpdDBg08wcEQEgLR1GwB8BeJVethoNUwu6pNTIjm0TMBC+82ko+33Y8QyK2IlZ4w5zn3w/IlDEaKzrZO4cqo6mW2e0qexts8myxd/iOQyd8XQmRVR05wEgHuhDvzrpDmpuzmUmzf851Cuoe2/TrpQ6u5CKAPMUq4eulDqjmJn28tJT+f7Y9icd2KMAenKT0OhfcK4YuUYlJzjbHxqF6asJ+lLZ55xD5w4QEfGi9Di+KNtZnFxx7uRkEKD/M8tUeoYl/ZOGKt6J4CyQTY2uRNT1i/dI4M73f3HjygGBAu2/fsGAIzR15DqIlvfStkEHeU5oTFwadhIrHmUsjYbG1f0us+9OBhTI+4AS5RT6ankqHAMkm+Kl4B3nfijZebJova7MJf5H2xiigpximmI4FNBJqm9euwThXwgTVYvXYUp63aYeyKKcz4djf/sfYrpRuO1IPGHeNQ67T8ZafzD9TX+/rQYSyvj33KEiACmkQaANAB0g2GvwrR9A2OMknXLRsi6ZQNs9PwjQOCnzu4jT9CjQ94XglbEf8EQEmICgU4A6ASAfuzOb2WMvc/YuPyMsbZvD5ua+f/oqdEHnF/vP8KpLdj2Xx0AkN5CDtszWwP7+4vTgfh9/QH8O/F4B5TIV390S+QJ9nmex0KcAMZoYLcgFDqp/EJiPl+2cxADqP4gmfSrgmQBcHVBM5eH2Gdc1rfJfQptegUAACAASURBVO7FAS43aqQXdyRYj3w0IY8JX97G4I8Z+53W9g3/q3j/k6NC/LLyhKWj5OOMmOfSPwAAxWzqzWga/jcd1foC4XISp5QJ8qr2IvctUhT+jbj+5rw+6/DfivFCAn4j5Bttr9XqU+MfLt9oe61Wnw3CX/KcV+XLnv+ebHVNJAvesxt4/0cAUtmlsRsX5zczl77PetUVx9mV5x8Al32n9PDTT7Dz01EvS5uAfx39P36dKcC89/8QkYBp9IBBboKMfaORbxs0+rvvp2NT33B+tXdH5QXngmz/tQHA6iXbADHtE5NVpDhHnt9fX/amONC5lPE8Fyxo32PNlAalc/VrGcEG5tsRSPZGW/FW23ddcLHzuxV5IgbazKHXAMCDlSzvYkj6hoKX9fhUOIpyYTZEfYlPvv5V+HiUHH9MWesYsJsA4PuSWMWRalR5JfErebLGmOQNXtQbJxBlrRs29mDGfkuAy+9I5WeAnMGvWWH+plOr27A64uMNw19W/xCSJ0t7sjJ/ca//CwJ/QXYhtH+Nf3hajFHjf+HhT+Sdz8oxxvO/miG8B6vS3Nz/q77QIGkAWIOF9jWMsj+w37BtNzs//VX3uWP3uQcHRqE18JeU0ytPvP6fcq0mb38e+n/IgIBl9IGVfQ9pS7/ZuuPlP2Ej458t/fyp3RWtBdX+DS9lXb/xHjCNG4K7dXIdeP6XeD2ed2RCQ+AX2HryVV1xBMddCLxMzdEemC6exVxmi3Qxro84HkrywsrCy4iLlPmROd/YEYEhFt09L/6LEAzj/sR02B+vLx7j2pTpV+UxbSEW2tOMspfYdGkHmy7uQAMPQcmdAIJLESsXSr34AwAYRhsYxn+wU2dLc1helU2VvThpCOEHZI0NK27DzrY/RqxcONVLibtufJeg4uZTeSvBXDYNRecJtIwnAWA/AOxnjO1lY5M/owcH9sSISYl/RFmTXsO8rHiMXX8R+i2Pf0h6trHXUx8yfZW8Kt64ZYgTb1Ss9ZZX46/xT4w/6V2UYoScYdPFyjOQHAPHTaFBCkme/9UjcEcGdd3/qzLIK1Xi8bKEvhoi2mgZyyGdej1ZWrjDuLQ3zSjdx0bGp0PqDyQ8VV5i/DBtGdjTmWIzpSe5fgYFg/RUn5WR/T+PJ+nHBeCev/4fIqbQNjdhW+r1xqreLOnM7abHz8jqWlV3TW//CJURgv2mV/4f0tl2A7QksXvp0LnjpKfzT5sdiYyY4x51fvncte6RwTOQ7G1To9881WOLGKuX5shly7aT7vw/oGX2K2QTEXPcafrCqatLj+7Zr4gpLMZG1p2o2zC/ZPnitHXd5d/BtvQboF5iDFjJ3UXPnPswff7ELvfI4IRCsuH4K9L1YBZHN64tme2WwH8ebUECWY2/xj+JrYsef1JoJ8amFb24OP8BbM/+18rb9QVLjDEKRWcPPTvxGXfH/u/T4XHZjnwA84y/cdXqbrJ88VtJZ9tfBabMLlBijFGYKj5CTwz/eenRPbs5Vku3//LYxzZN++03nEbL7FQ4azKxe+npsSfJ4o5PNzsSGTHHnaCnRm8r3f/k4wKLgBqYKOJ1+eNsdBLZsF69eTtZ0fOzRt0A6djk551f7v0IHRyJs5BbvHnMhpKWW+SLjSbUhnXblivJks5fNKL9sGLpKD00eFvp1/sOxfUvxF03/iEy9erHoQWHf8w4PGr59h8io/GffRweafyj9aEBNmaNv3n9pjTpbv9v2Nn2cSTEDNELJea4k0DpTubQA2ymNCmTQYOYJJ/tAwBgJScHjlsAxB6wzd54vquvsNUSlBZhqviwe/rcx5yHnpZtWc7TvOCPtkms1255Ay7KfwMNko+SDyM2UzoOhOxFy5DWsVSn6OTBpVkA1g2m0YuWmasnhrJRBqzkHqVDox8s/WzXT2ABtH8TAICs6FkFpsF1XrzPJBCcByUSz0oqr/THyTEAOj414A9ckJf9OnCo7waUh/+iZJActmfWAcCOClesdBVFPWj4c9nIUeZH5k/kqy4oAgBQ+sUzj9pvu/4+bMu8tRH1hbb1RmPjJZ+hgyPeFxIxzrB44j6YeZ6oEyYv8xeGmy8GtE3AXOZt/s6/+JmSo5CFT4wxYFPFL5d+ve9AxU9T8FfIhdWXeC6LQ3Ztq3gy+7xOy+AfozwLrv0r5DT+6hjCyqPxD8Ys8lsKf+eXe6aNay/7G9O2roVc+nWRz3/xVs4YsBnnCXp2/M/pvuO73BcG+Y6psjxkacHGfDZLlnbmSG+h0x0ZvxI72l6BtrkFDGMDWoa/kxqYKiMJkAEgITbLpm43+ru3kjuv/bTzq71/X/ka0DT8WdGB0k93/cC689pXQD7731BcKB1Wv5VM5tJpOD/1FXp67O+c544dY6fPOYoYAviTxR1pyKbSZEln1rikO0+nS6vANl+F2dR1YBpb0DSysft/1dlCCGibK8mSzm/Yd17zkdL9u/6ZFZ2Wbv8GABDzmnW3YnvmTSjOe5LN5xeJ74CL87+B48nmrfkWkCpsIQCdnPklWuYg2ubrAvIAIF8VLvFTvbi4eV6BxSUxy8PFh4jAzk0edQ+cuN+zIJSWCnneH1XIM4U8cHxRXvTlAc7bl/mT2jc3rewD23gtevVdB/5oGZ1sprSXHhh4WlIvYjyy+Oeivvg6UdWXWL8BeeuGTT2k0P7/oml01XaJENoR8HXEma1ut1vhUTbJjp3+ND12+tgsytNQ/BPUb1h9qeK5YPCPUR6+DhZM+08Qj8Zf43/B4c9ODDvGmqXTmE29zWdK8vz38QCBTZcepy+celvpF8/sYaMTJYiJP5uYctnw2DQ9OjTq7nnxFD08+Cw9dvonbHzq3zGf/Xd6bvIFNI0sEOxFgkbNtyQ+L69cGkBEQEKykEm9xli++GpSaP8lfXFofBb11Tj8XUqxPXuSdOfvQoJpL9bQ+q2Ujbm0yM5O/AU9Pf5J59E9p2FyxlXEJy0Pm5xx2LnzRXpieMzd99IZ9+DAYXf/8Yeg5N6LGfuHrORMgkmWo0Hak+KPBmmDlHUDLll0kB4a8KY+t2T7NwCAWddedheYxnZUvkVnNVvI+/KyVXocTyai7FB6FVxpUOenHzUW5V4AxOAuK0li4H14+SgJLomtCjHECXfPi9+CWmXxIIp5TMgTeaCQF/W8P29Up9IV/YTZZgAAZGXPWsyl34i+lfqzxx8ROzFt3UsHRmYiyl/V5MrU6Prifaj4qrTPl7lx+Z3YkX0fep17WVUwrx6EuvPkqwvH6Aw9Pvw1evLsAKfZFPwlaT6PLyVVyMfBRhaPRwsC/xjxLcj2HxGPxl/j79EFiz+5/BILLeOdaJBUTSP8WccoHaEnR+4pPbpnDzQC/6LD2PD4tLv/+BA7OrSDOc69aBsPMUAbCF6KhNhlSSb0ZziY+J35EBEsYy3mMneQrvzT9Oipownqq+H4s8mZMWPDJe9DxA6ohu7v//H1W6Xz099jJ4b/wnl830yEj0T4szNjM+6BEwNs9PxDmLZ+gqbZASZZj4hGIAaRuOc/EpLBtHU96c7/lr5w6kVFfADh8c15+ycAAGyquEHd+Qcod/wUneWGE9+JqpxMzZz0FS2K4sjK3tLWQZiylmNXew7CP/nKSPzspuLJ0h55n3TCbIX5DRAT20m9+Gfs7die3RAjLo9knx3j1kdcWdUny1h+jXXLctiRvSe87UDweg4l38XbNPxjyPKf2uvFQUYtj39Mv1HUku0/hqzGP57fKNL4y6n5+JccCiwwTSacpos7nR3PP5FAIzb+rOSA+9yxseKPdz7i7Nh/Dx06dzOdmP42c9zJYH9G8axhUP4aYJvryIqe/7Bu2/J28/pNs7lWGoI/OzsxjYhcHUv6fwIxSh02U/xy6TfPqxY1R/qtkBJ/enLEKT309F56bOiP2PD4B5lLz4T4khJaZh9ZWviSef3GsA1Vmtr+STlQY32EcBOJATDm0HMTY8ylYYDXKHDdJBk9zJIo7TSW9/SDulHIwPFGbirgZDcfHmjxqJqrJ/Mf5rf84xcNJCTEJD2d7zXW9qlij3sTqafuVP5EWyKGsjmlQNYs3QCWuS3oQhhssyTXn+/ibRr+IXZkdqPmiIqYAVwA+EtsyXiy2Fq+/YfYkdnV+Kt5stg0/gsD/8TEzs8cYRNTDoTXZ9340xeHiqWf7tzpPHHgHjp49nfZ5Iy4AQlI+z3c7Ac0SIEsLXwD85n3SwYB842/giRlKLljzKWDEr8Nb/+lX++fdH619+vs9Nh74w8CuOe/bW4mPZ1/iW0ZfkF3y7R/grZpQja1yv+Rweu4QLD+xY8MUJH3f0gJug/7QMTLM8EJQwAGk2y6VATGHL+cxL8sHpmOLy3R98Utpj0fXD5iDpcVeiEIhgxEGkMGQA6a90eEowh+2MUg6gfkSVe+FwAai79t3EmW9/Rw/mQxVUNQxMvXnYz4RiErv6gv1r/qxuS7OWAuQ7At/S40KwuzAvXEoLrWpJoH8utSTU3DXyHPp6NkVPipbCwo/CVxyeQWbPtXyIvxh8lo/DX+Mn8qG62Lf5znf60vEQfbhuFPXxh0nF8884h74Pjr6ejEp5jjTtbiwkqMiv4cA0CDpMnijs9hPvN+c7vyS8B84F+LMdD/4+L3yUmp4fjT4XHq7Nj3IzY89lHm0ulw/L10+fmPCIDtmbus6zfcooihqe2fYHe+DxBN/3IDbt6++DYdJefiogjV3H7enu8c/XIgpCkbAkr9leSLA9Vp3p6yLBJ9X9xi2vPB5RskSwrt3ZUUf/GJIIp/ojwIemFyYedR/lX6BAAATWKibE57dbo6pdVpQjHxR9vqxWzqDWibYhwB/yFlaUS9xKn/UP/WKzf0Y9p+HV8+4BP8lClZe4qeDdRU/EPk68VCVv8q/43yGeU/Mf4x/C/o9h8ir/GP51/jH25voeAf7/nvv5/PK/6s6FDnycMj7jNHP84Gz76TufS4P3ZFf87L9gYBHVlxEDCf+HMxKfpffOzlzve8tX86PA7u8eFvs4mpf47G3//8R4PkYFHbh0lvIZ3A/7y0f4KLO5bX+GGve4Eb8TDJCEgx7UF6FHRBtBMc3rHh8RFgbDrAaBFCBGBjk33gH6WJbyzi/kXJi3yVPHBHmYxIXJ7w9hrAj/F06VEAmJby+LRwxFz6XeY1a3MJyyOmSZPlCbOM29EyVnKVI1y74jUOkc2rnFfNbDL+vnRS/2JarM9G25tv+Sh+VPmi/pLaU8kDd5TJiKTx1/jL0hcr/gmIhd27ZXkNx989OOA4zxy9jx4783pWdPZ6YfnDlE9LLQ8C8p/DrP1WbprufOLPxRXj83i58z2v14v71OFJdurcZ9hMaX8woPDnP6bs68yrLt0eUQ914R8iBwoZINi7aHmNH/a6H/wLZ/kREBN4vKz0KIyeAiu9/X6xLTUCjhu8WFqKEMCll0K8NyiykdxcyIWdi0QFOQjFP2M/w87PPAYAyfBP29dAOrUlYVlphAwojnNiz7hydY50ZN8RuIa5a5dR5jCX+n+YJKJ5lfNQjLVZ+PNtLSoOsT6pQm82ZWg5/GOUo56yNlIu7Fwkjb/GX+MftBOTxD5NwKeYnhP86ckR6vzqud3s5PDvsqmZXcFnjvA85lkGSZO+wj8Yl/Zuw1xGVg5VHPXiL8QnxBY+3Wde27/zm/1H2fjUl4PTnFGI3X89oEGykMvcE+F33ts/IYtyvVAvRU9nqItIT+cYc1zxRx5aj0xDrMuoUVqUnEizsScfacv9hMn6CAEpTEx+jTHmJMEfCRJSaL/HWL3UWxQzmzoJK3/SvMT2jN7OLfLFvxxNFfdAydkdKiMlJsbGUzPwn+u8BYe/JE9Vx40oa732NP4af43/7O3VQ03BnxUdWnr0uaN0aPQtbKZ0KEnAaJA89nR8y9i6tk/hs9F50fUs6V8w5ntOziX+vjxWdCg9N/kDVnSORsYtFiObusHYsLwH4tXJvLR/ghl7UeQ2hi1A7MzYKCC27BQgAAAo/xoshfDRqGzkq3rroGocsrcTcexSCU9lL5wQwD0wcB8UnWOJddPWnWRVL781VtI6CSt/3Dzx7UUc/4R0tZuYz7wTDZKW2AYABowyysYmvwEARZEXTb622Ez8Y9dJDBuNtNtU/GPkXSjtX+M/uzyN/9zanW/8Z0NNx58VHeo+deQoHRh5C3PcRFtYYspaZfR0/J2xaqk3Zz0szkbg3wiat/ZPn3nhOEwX75eHEfKMJ9hjXNZ3TUxfXmxSSyF5ido/YRPT6i8AMadjxRKKY0siw0rOBD03Uazsx1suQJxtFePGHiumeP6wLeXtAqS6qACCIKjkCATBVOXxaT6fHymqbkJE4Jf/qrsdBIvqkXtwYJpNznyTJcQDLbMTs6k3couBvVjEC16MUxUvSOQAgjjEeaioYiIAAMbVa1dCyv4dafnKpQNw3aPuC6d+FJTBuLv/iHHw6fnBv0ZUoiPzLeaFyankWx5/iX9Z3sJv/8F4Nf7+PI3/hY9/meI+39T2RJ4Yr0yubvzp8DilL51+hg6e/cPYW6hXCHPpO8mm5e83N66Q2Zb5VpUnLv4J+psA6J8qK9qb0/ZPR8Ypmyr+UL4LkPplOiKxgcG1knhlMc1L+yfAmO0rhAoAfvurap63/SP6ZWT2kMtTyQLj5Cq2KZtmUyUHAIrg/WAEosIXC8Yvi5uPg/fn41dseavSY9wEKr/Kp/o8I97coj7TiOCFfeqR8cUbTdjno2A8KKkvvh4rn+DokcF/AcpGfTKiDkAAf8yl32Vs35CfZbwiX0yr6rFePChm7TvRNvtARYwBm5j+Phs9PyStg0C9Mr9Mjd1c/OvHAwR58aZcT7xNw1+RFn00yp931Phr/DX+849/heI9/+PbU/Ibjr97cIDC1Mx9MDb5+cADOrB9OsdGBFJo/wQs6fB+vHNu8Vf1/5iQ9tNc4y+ray+cA6zkBL+s8HGLL1ERAGxzawJ/3nHO2j8ByjqrYt4aBi9oyXqM4MJHf7JcCQns+XTRdwGWdRkFSoGeHBlFUpkCJHYqeX0xlupRGKQE4hDfzmItdm/bJ9UAyesTu9Qmizvyldz4I19/Pk/iRSrmy0a6Mj9R8pJzDMe/cnR2HznKJmfu91QAIB7+KWsTGsZ2IT6+fGF1N4vy1H9ubL60E9vSbwtExN9TXTrCRs9/r5rBl5lB+SuAj4QtzvzsJuIfKw5PXnUzDUtH6bcc/jFj488XcPuPFYcnr/GXy2v81eko/VbAv0wxn/+SOFsC/9Kjz1Fn//FPsqniTnmHjUtyz2s0SN5Y3PFF88pVNqipEfir+3+gSPO6TWj/9PmXzgBlRwHAjz9y/Sb+ryKH2fRKYeaDrDwezXn7JwDQGVCTdvwUefXoxsmjbJSNjE/7/KkGEmK+rFM1l7qMmWAasrnhPOAeIFTII1weEXRAIpuEZPZl5wCqi0ksO/dGhJ2d+BqjrCiVU+QhIiFd7Xcb6/r4mwsRjrLz2ZQh7AYft/FTY8Xia8A2rwSRuPKxqeJj7tNH5It/417zrYO/eN3G8SHKqmyF3QBbEv+IGFT2AYJlXyjtX+Pv9xsWg8o+QLDsGv+FhX+Z4vYdgtR0/OmhgUl68uwHmUtr6yhjlAfb0jdhX9fbydLC3OMft48JwC8Cbkr7Z6PnJ8A2h5Rxy6gsk4NF7QVokfaf1ND8E2MOlFwKAMBmnNFmh5OQvAoXR3Kqi1Y8iqPmsJum+ICS2YxqIHxc4VSbgwfuroOPwkxxT6SOSCnrduPSpavAf1Gr6kOMNe6ol5eNY0sqa6zosSGbuqcyzUtKjNIiFJ1v0uFxRyWTgFoBf9WDSnYu2pJRVHuQlacl8BfsxsEhqa1WbP8af7ldjf/Fh/9sqGXwZ0UH6HRxJ5uY+kqiEiACWZT7OPYuysOc4Z94elWYr3lp/3R4nMJUcTB5yAwQ0YR5xl8iS7gM2WIG7lw1/03Gl4rWYR/BYeXfACCsWBpT2g/OoU4Wv0wfJHyZfjTxYIvAinIAfrBF0PmbsgisLE/MFy8qVV5E/VVH4ECHJ4psuvRVxhhNgj8aRg7aUu8Q9hyWPXTEhiKWX4xf1lhkDTvs3IcZWbdsDdrWTapiAQCA4+539hx9GGQUdn0GqRXwl9nk/Yfph92sZNd+mH5L4K+Qld3AZbQQ27/GX+Mv6vL+w/QvFPzLdIE8/91f7wf3+ROfZsXK3PVq/OH9M0yZK41Ll/wXY81S3j9IjmJ8svJJyq56ze8dg/Fh7YfA4vpvePunRcf/Oz98zKpzBjbmM7mAXpnmvf1XhLz5C8yPBVZru8bnQUFWOVYmjnl5lZJW5fhFND4+q/lkAMIC03Im4ig7Mz5dDVw6DYWfaM7bEOLjwqqtA2D++WXV+Vqs9sfPjfPFHXoH4Cs86uYr8qNu2CI/qX2RL8qVKQz/GhAUAMDd99L3waVnkuKPmdTbzZev7Zb4j4ovrExRfLH+IkfRmEu/AS2zR4U/Ky/+/Vd66GTIVyrZ9QlcunpsBfzr4fviIz0dedJb6CRLF3WS3kUFsrSQi9Cfjf+o8vHnifGPsF9v/Tek/ZOudiA9nZ1kaaFAehd1Yu+iAuYyZgz/Yhz18mX1G8ZvhH/VeSCPdLWbZEnlWuxd1IlLOjsr83IXNP51+BflYvG966x8LHSSrnbv62hL46+IT8VP8Pz3pVsSfzSNM3Rs8jPVcvELIkP6f9iW/hPsyhcU9kU/yfFX9f8q/qvp4FhhrvGPss+Rov54PoDDJmcmIRy/eWv/JvAU+D0AX2/bz68uBuVkfeooyIk9bHGRh6hT9UernaIZZwDaFfHy8bCQsgTm9nMXl68hSPJ9MYKCqh04nqiQF5YWQRbfgMj0RUriT0qs5GTQ4i8PAX/mL6e776Uzxobl90JH9r9gAEtQ4o8pcw2mrZsA4N+E+Hj79ZY3jrzKHzW3XdaDbem3heLv0kF6ZuwHSr+ebrX4Ql0Gf6GxqfhL7HkxSfXJ8sWdxvr+5WRRbjkbn1oPKWstZlO9mLYLrOTkgHH3GoJFNI1Jdn56iE7OHEfHPYj57F73pTMD9MWhY/T4mYkofwnLG0de5U9may7xiGz/2NlGjNVLVxrrlq1k585vhpR1OWZS/ZC2CuC4OWCcbZNMAGUTbGzyKMyUDmIu84w7NHqMPnv0EB0ej7s14Fy0xyj9uv0Z65YVyGXLVqJproJiaSOkrZXYnlkOSLLgutlqPSE4YBqTUHRG2fnp4zBTOojtmb106NxR+sKp4+7RU2OzKF8S+Za7/3tkrF7aTTZcshLT9nI4P70eUtalmEv3o23lWMnJ+641g0yjQabp+NRxmJo5DpQdhPbMfnr45HH36NBxdvocf73NOf4J5UP8xX3+++7dSeKbN/ydpw6DUSz9I8lnP4K22e0rSEj/D22jB5d03kW62v+WDo83vv2r+39Q64MJ/VH19TEv9380iL//HLaAofr8RwolxwmJd17bvwkAMecrx1nl0Eiq+DPINDhO+VeAKY33Q2ChoXJfAsQdjaqnivyAnQCPMsr4ERdAEFifvOScKPLFtEpe5UN2kfPky2fnZ3qxk7++xVW8wfjo8Ng3jHz23YCQDYlHsIOAnbl3GVesvM999mjwk5p89Cors6pRx5XndXzypLvjOrDMDX5RP/5scuYB9zfPH5L4CaGKjeAP8TUdfyFffIMDmMsQ8+Vr12BHdivY1msxZW0GgD6wjALxT+kC/0CSy29Lg9FWXjPPKKPGqiVDxure42x86gmg7Of0+Jmd7vMnBtjElBjXvOIPwboT7QfS5NIlWbIoJ24XO+TsOjym0An1jYvzpnnV6vWYtm/CjuzrAWAVmEYfyRYqlVu5lmR1TRhgofzmhDEGRmrxkLG85wgdGX8AXPc/nMf27mXjUw7vj9cGCf6qcgvyopzqWg27hmO3f8xlTOOatatIe/YaSNt3YMrcDID9aJK8vzMBAGgE213KAkxZZSnGKOm3Rkh/94C5de1uNlP8BZuc2cnOTszZj1GymdK0+9yxAZBfF2J6Tto/5tKmee26NZhNb8e29G1gmRsAsR9MksO8/7auatekPQPQXr4HMEod47L+QWP9JcfYufOPASE/dw+c2E0PDYywohOnDE28/4d94Zc+/1W+xTyZ3Pw9/106waaKX0fb/L9D9ARCILnMH7H1l/wT/dVe/jndiPYv9Sc/LxMD3xQg3r4srjm5/2Mu3SMJ3BdlsN+E01CqrmVtev/PBETFQgbFBR563QvMUNl4QmibY/T0mPfmwPHpxLIfsOg7zJ4EAwzKg5XzMx64IjDiiE7WIGSjPtkokAdRvBB4mzIbor6oy/OD5NU5C9p3f7VvF1nS+TjmMrf4ZEOJAaSsm8jSwnr32aO7JbHKyhbWiSAKHVX9yGSrNskl3Tbm0vcgQeVon7l0Eianv1V5oEXf5Kr1oqycVsBf6te4/JKCsW7ZTZix3wGWuQ0soxdlX8skSTmVhZAgAdvqBYBeLLRvZZS938hnj5BLlzwCU8V/d1449Tjde8z7dDpv+Ct0xLqs6hhr+2xjbd927Gz7cyBkk6+ko+e/ALsO/w1Xhsj2T1YvTRuXX3IDaUt/AFLmdWia3RFvHzmHELjOEBHANnsAoMdY0rmNlZw/tu54+WNsfOoLzuP7HmdnJ4qKOhPLmvS6U12HUdewLN+Hv7HhkjxZ1XsdtqXvxpR1A5hGn/rX7ePd/xGRgG12A0A32OZmYJk/wJJ7BpYW5m4AcH56p/vcsd+DJrR/Y+u6XqO38xbsyL4LCNkMltEjrcOEz38kxIQU6QeAflzccR1z6Z+aW9ccYpcte4AVS9+j+4/vdg8PenU6K/wlMjKdWbT/sItE8vz3Z7Xs89/dfxzANr+MV6/5U/WmFsECYcbegNnUDQBw/yz8qtv/bPpxwXWJ83r/J8u6slByuyFVcSctg2TgMjl9hI5MeP3Zpvf/TMBKp9o3nd57EVvragAAIABJREFUM+nlC9NgZHxEKO9x7p2DhM/74PNVfIDqNKBy4qRykS4fj+9lzyziAV4foLzWQSw/cDYqnRhEYBNTqo4CcPkySgKg7KLhLxCZH9VFwMsGY1bhjz7fZdGSQ+H89NdYNn0jIppx6xsJpLEjezdZuugZevIsf1Gr6pAn2Q01Ttlk9Rm4gZibVqyHlHVDsH1ArUwlZ7f7/MBj0uhk14rqegyPuTn4V/KNrWt7jWVdb8V89g/BNDYgIqnGX22/jWv/iEjAMtegba5huczvW51tT7BVvV91B4Z/4u46PBJS/obiH9cG5jLEvHbdBtLV/meQTb8ZCcmL1wrLpe8AgM+DnHw4m1tWm7i440ZSaP8wpKwb0SBp373Pd88T58oCqGUrzEp9o2kW0DLvZGn7FvvWLT9iZ8c+5jx5+AgdHudji1OHUbIiX5SJU98+MjZckjdWLb0V89kPgm1uq9bRHNz/sfx1pTvs/l+zpcAmIh5Wco5J6mFO2795w6ZVpNB+D+YzbwXTWIdee6xOh40qH1+m6PaPhNhgkA24qH0Dc933kGtzj5PLl/+de3DgYfr8ce/Ncqvc/6FaCTGe/0LfpKWf/ySXOQbnZx6BXOZWf38L5PhW8MdC7m7jipUPus8edaBR7d/XXgHk8YCvzXKD06bc/8kl3XmgrC+Af1T7Lzo7QE5N6f+ZmE2XvwAgV+O+ufXVf1D7dVwF33fOVYL0rQurHQPrCTiX56e9X1sjgODU7PE3pUrl8jd/YFJ7gXiYJE4vPOSUY9QPnZwZBH9Fixe7SKqLUTUylKXj+BDjibJXu5DC8Q/4c55+4SfWq644CilzTRL8MWXdSdb1f5aePHtcEr8sZj4vqr6jyi+TAbRNAunU29A0OoXeaa0UjFE2Mf0N99CA9xZLqL+wtsLnVewzaXzNwJ8CADU3rsiT1b1vxY62D4NlrMfIMjW2/QMwQIOkwbBvANu8zuzI7iLLur5Ajw/f5z512NscYE7wl/A8u76brrntsl6yZNG7MZ/9AFpGv3RtEgBg2t5gbFze7z537DhnK2DffOXlfcayro9AJvUeNI3ajhHKe5CvYjlZ8f7o1bXXUYOqDBqYhVzqrZDuus681vyo8/SR79ITI960oCTXm4ziXm8yCtQR6Wo3ja1rt+Oi3EcxY9+IhNitcP+XPx8Ttv95uP+jbRJyWX/BWLP0PZjLfBAsY7l/1uv8PP/RIHkwye3Ezt9I8pnH6Moln2OnRx92dh3m1wo07f7vK2Rc/NW2Wur57+w8CFY++01sz9xaLke88mHKfh3pbCu4AEMKfzKKF7/i/h+MJ2Bn3u//ZGlXH9jm8iTtn1E6DS79tSTGpvX/TEB2jjEG6k+mHMWRqQk3xBYtlibB61CZxnTtxizoB8xF2Pfs8G8gZ2vPs1VyxqqxBkdjYWlPns9Pqg8CX7RRj70y+eqI8Tar/uhLZybYVPFbYJufCIVYYGLKWont6dsB4Osh8chG+PXUVyB+nmlsu6wX21J3ViKUl8N1j9KXTt+vsJ+AAg/JpuKPtknMV11xI+nOfxzS9nYkmLB8jWn/vJ3ydAL7GtJtfpO0pe8nizs+4Ty+b3dljUDD8Y/QJ2TjiqyxsucNpLPtzyBlXYkYUUcIBWNt35WVAUDQXlcOzFdu3Ibtmb/DtB38wbmoOvXI16nlVaVPWF8aTaMfejq/al23YZWz8+Bfuy+c4qdnqEisP9l9THa/U6WVeFk3b+7GRe0fwbb0e8oDc0VxmnH/T/R8VNqf0/s/KbQT8+VrfwcXd/xVZd1OghDn5vmPBqYhk7qF9JrbWGf236y29Ked3zx/hBUDyxPn9f4vBKxmyfFv6ec/KzrEee7Fn1hLFzlIiBnr3oIIaBk5yKZuBYBvh/ibTftXOfUnWeBkPvAP6hdL16FRmT4Vt/1Tetx5+oXHFb6a0v8z6emxAdK7iCuF8A21OqLhv8mAcNPkv33xN1SZjpeOqcMViCzKDfr4qt16Ap/EBV51209BTlomxQPCI543UxIXcAXKEJJOmh9n9B0mE8NeCP7lo3T0SV86/V2j/ZI/AYMUfDoR+JP27DvNLau/6+w6PJEw9jgyYW9gpHxsz94Etrk+DH92fub7zq7D4lcLUcqzWEkqrrP4sapkonRi2TM3rsiTDf0fwWz6j9HwFlA2qf37dAAAGSCiDW3pO4ltbrVu2vxZNjT6T6Udz0+An+rGXyVrrOmzyere7aQz92HI2rfU5tGG3ZsAkBCbIb4SAH4k+jO3rDZJ76K3Y6H9C2iQ7kTXjFh3qjUZgfkxclzQIGloz3zC3Lp2MRDy5+7hk3Hmvc/m+kxiD6ybX3YN6V30OUhZ2zHQcW+B+38E/jHb/5zc/9E2Cbl6bY/Z3/1xaEu9Gw2s/WJ9oF025/mPppHDXPo9bEXPdjOf/Tg7OfJ94WvArMoeohOv/SfGv67797w9/+lLZ0ZhYvpRaM/clAR/7Gy7zViz9LvuoZP8CK2+9p/g/l+OLND/CJQvRjyzu/+v7ctiZ9vv+uMGCGv/jAGw8anv0xeHZAuAo+KU5Tfk+W+y4fEB6F0EQseudo4gyQehQah4DdCZLJ4UBKPtBRprDJ1E9pQ6J9SCC5FC8A8h54kDB8jKngexPftWv7mIuk9b12F3x5UAIJ9PP49krFqaJZ1t7wx7q8scd4SNT31PzoRpsK1KY0/QDppM1g0b1pClXX8HbelbcTZtpcJjjjsJLh0EgiNgGpMwUxplM6VRzKS60TZyrOjmgbECmKQHDSMd757h56Nl9kFX+2chY19tAn7M2bH/2CyKHJswlyHG1jXrSXf+T7At/XY0jbwqNlX9YNq+AW2TcDuggHn9JhsX5f4YC7lPoEFyAVsSe4wxAMedAJcOAYEJIGQaDDINJTcPjNkAUADL7EHCv/mJc3/Dah62Z/7Y2LziFC5f/CnnF8/U26GfNaFtEuvWq96Ai9q/gLa5vMZIdv9nlDlQcoYA8QxYxhhi+SHIKCPgOJ0A2IeWUahNk1LZAwUPgbl0kp0+ex+Y5hloS/VjyuoBx80Dg04gmAfTyPnvKXPf/snSAjE2Lr+SLO74KmZTW6LK4DsX7v+s5IwCZUNgkFE0yTSdnBmCkjuJbZk+MDANpVIeGHSDZfSU3yzH8cPzEDBlrSOLO77GsqmrTcv4tPObAyPQTEqA/8Ij/DkDuAkT9P/QNG4iK3qy7qGT4va4dYSR8P6v+nHXeSCytm8TmMY15XBi3lNd9wwdnfjXeQkwAZn0zLljRrOjCCPHnYbK5xE2VSxCyqLJpyPMD2FHVuyA8HO14pwnkYvrBxR6cW3LKbz9ETY6+VXWlr4TCUmHSnKEhNhkUe4eY23fDvfgAP92odF1EqlDLl+2GUzjutCAZ0qPu08e3C3Tp4MjDhok7j7rKppX/K1XXXENuaT7X8E218SaEigQK5aOQ8ndwcanfg6msds9emqQDZ4dYWcnJvkOLwAA6S104iXdBfPSnh46VdyK+exrwSBbwVTsPqIgJMTEtvTv46VLVmJb+gOlh3bvUZVPci5SaD3ad167DgzyU18nNCmlzDVkff9K95mjRwAAzI3LTexsez8p5D6JRnhbYZRRcJwDbKr4ODjuzxiDI/TI4BA7fW6COe40MjoNhpmHtpRtXNJdwMUdy1nJvRk7224Hw9iU+L6JCNiR+0ucLO4hSwv30ZMjAPXVY1y56jnaJrF+5+q3Y0fuS2gaBYmNUGKUOeC4+9nE9MNgkh/TE8NH6ItDZ9jo5Bg7X96wgXS1m9DR1mmuW9bHbHMDpu07IG3dhKbRl3RaDxokC4X2a+jp8Q+U/nPHg9jZZmJHW570dORxcUeedLV30nOTvcxx+9EyLoFsuh/TVi+U3E6YcQbj1ImElDrmxhWASxfdTpZ1fQ1NozdRYQAAGANWcg+x6eLjMFP6OSs5e+ix00NsZGKUnhzxbduMtklwcUcnWdHTTfq7eulkcRvpyN4MhrEVTVJIUpdokCy0Z/6rcWnvSiDkz5xf7/e+ss7L/R9iT1EJpZZ//ruHBx4xrlwVWRCeMG33sfGp9QDwRMJ45HLih8r4NNf4B+rRWNtnY3vmA8GXP2pijAE7P/0v7mP7op5Ncxa3SseEyZljFYHaBc8ERGY7sPXN18LZ2WHMAa9Tde78GOnOTwMxsrzZRPHgbBQFG/yn44op5tLpyiLgsLlcspuK6oYTR59yx6g5dmFz4MTzsl3p7BQvz7cGIEDus0cfI4vz+yFlX5kIf9v4HbJySb97cIAfTKkuYO8oK78qPll9+/DCtgxg2n6ntJFX8GeMFdnE9LcqP4oSNx7BToXk9TKv+Fuv3nwTuWTxd9AkPTHjK4tRRqHk7GITU9+kp87dT08MH6HHhsT4RH+UDo6MweDImPvbA0cBYAfm0l8xr7t8DWZSd0J75m6wzfXVN6X8LkF8LNzcS8ymtpMlnd+xbt1yd+mBXbsFfzxF4q+QAczYOWCwPLCzQ5JbCWKBrFm6xX3m6BHS1U7IyiVvxq720M4/o8yBmdKj7Nz5f3AHRh51nzrsVbDvwVGJagwAKH3h1BkAOIC2+SBZ0fNpsr7/dtLR9jFMWZsgirj7PxJik57OL7H+rp305MgAxO8keXLiw82LO6q+Cdom+Dr/YTOaxCKU62wnHZ/8EhscfdD57YEhQYR4/ujwuAPD4yPFI4MjALAHc5l/M69ZtwY7sm/HXOZutM1aD0lx/+cJbWsVWZz/mnX71veW7t/5IBs9P0JfHBLfYlfrBTuyJi5qL2Bbin9jXnf7N6/fBJjPvJt05z/nWy8RRYwBY0Ch5DzOxqf+gb505hH64qkBbmcoz5/PJys6wE4Mj9ITw6MAcAgAHiWF9r8xXr5uE7al3oJt6bvKC47jNRhEJNCWfrOxckknIP6h8/i+o3z5uGND7/8gf96UKQb+kviSxhNXv+77P31xaLex+dJpEKeERfT/yLKubQCwU2KT9xev/UddDpL7v2QXoLnAP1CHxmX9N2Am9UblM0lGJWc/O3X2c6zkyGw2FX9CT56dhqnigC/bm4slfAlNTJ4+xuz8yYgy73cKSOC1s2cz7uegWUxnKdsXbCDWPvFUqgoonWADw+JDxiMqnPM30LgXrsyeTD/Om/wombLNMPz9VS7ao/TkSJFNTH+NAaNJ8Efb6sVs6g1oB35kRlVXcSmsvn1kbF3dj9nU71QzZPg7dL97ZPDBxFHwgyp1/c4r/tarN99Ili/+HlpGT+3ajm7/zHGPsTPnPuQ8e/S24g92/L3z631e51+MT4wzcHNiE9O09MBTB4r/ueOv3SODr2FnJz7OSk5lhzKurfEktH/M2JtId/6b1q1bJAto4+MvoVp9qdp/TEIkJlJ4JQAQ4xWXb8HFHV+sTfvxE2MMWNE5xM6Mvdf57YHXF3/823srnf/Y+LOiA+7BgVHnZ7v+zd1//DXs3Pn/HXm/FPBH2+wnK5d8zNy6VlV3gfYvxBeJv0zfuvllt2K+7YvVN/8R+HvEHHeIjYx/1Dl44ndLP3ziu85vD5xRxCElNjFFSw8/faj049/+D/rS6dvo+NQ/Mu9HKGPij7bZTxbnv2rdfOU2iLj/s3OTDj166oz73DHuWRdKkfibG1cA5tJ3ke78l9Ag/s5/BPys5O5nw2PvKj2+77bif+74trPr0ICwLawqnkB8dGTcKf3syd3F7z/+MXdw5GY4N/k3zHFHRQNhhNnULcaKnq+a112+MomeQLNv/3Ge/+HUss9/OjxeZBNTz/i4Me7/mLavJcu6+A59WHxR7T+cpPf/xFOA6r7/W9vW92I++1e1dXEQiT9z6QQbPf/R0i/3en3slsKfAABlxdKBWim80a13zucz4WYrnguyvjxRR5LPRB0GAOBNo6Ds3NQEsEqacfK+xSOcXcblVUfuCrQCD0VZLEyuXr4pjNHjw/wiYAp+sMXRMBXyaIK/MH0A/0g7Kh6Vf0X5fRUQGo97dOhecKkwKIrGH9tS7zCuXp2vM/449SceKQBQ0tF2K1jmShX+jDFgE1Pfc/ceG4mIJ0jVduWZZbLjvOFvvXrzJtLf/a9oku5aOSG8/Zc/af7APTH8mtIvnv2K+/QLIxAeX6I/5/F9A6Uf//ZT9MTw6+nUzCOMMVqrG66eJO0fM9Ym0p3/mnXDpnUx6k88htYvmykV2UzpGPc3yChzgnUFYjupEQJAW2q7uXXNcpLPfAkJ9tTKU7FTvsYoTEz/wH3p9GuLP/zNP7sHB7yF8bPCnxUd6uw8OFh6fN8H2NjU3/rujbKjUCZsS78bTMOr01j1VccfWNdvXIPd+S+iZXb76zQcfzZV3MnOjL2p9NDTn3d/e/CMyr7i6Me76NDSI88eoocG/oSNTHyIOe6Q8v4vwR9tczlZ0vkla/uGPsF2vfUVpg9kaYFg36JbSE/Hl9Ak2epOR1CJEwFk+DNKHTY2+Y/02OnXlO5/8rv0yOBkDH+x8Xd+vvtQ8Ye/+TA9OfIWNl3czcS+hPz5X67i8iDgH8xrLuuBOb7/C/lcLCHP/2DfgrfX2s9/QvYk7f8xl24gK3rsGPHELE84/uUkz8Ow8jUK/2raun5Djizv/iSmrW0gkqL9M8YcNj71ydLDz/4I/LYbUF+NwZ8AAKBtPVMbXvFHDKbDFgxJdVWvbST5KPFpmbVfTZucngZg5bnhyMsr7PILS1CMUXQvi9MrMwjnEnLpIBsa9T7zyj7fyPKJIi/JkbcT9llLFk+YLITiX6sH2cieAAC4Tx8ZYhNTP/Df6GPgn7K2YL5tqyL2OJ/84h75BkMAAIzLl+ewPfOu8vQTBf4uHaSj578fVX41Sa5R8TgP+FvXre8jfYXvoGX0xm3/jDGHTUx9ynn26LucB3cfqGzBmTRmVRmqR1Z0oPTQ00/QU6NvYWNT/5sx5vjae0j7x4x9Jbmk+4vWjVd0y2xDCP5hR/e5YwfcvcdeXf17YfDVbHTiTWxi+kFGgcrvPUHClLXZuHz5jzGT2ubDvXKdMcaKbGzy791DA3c7jzx7JCIuPv5I/OnAyHTpN89/hJ2fvr/iGNTHWv2iQdKkv+uDZE2f92kuEsMER1+euXFFFpd1fRYtcx3wFIY/A2CTM/e7x4beUfzxbx+v/CBj4vYvOzq7Dk+XHnr662x47F3McRQ7fgnPFg/XtLUFly76S9LVbit8NPT+j7ZJjHV9m8nSrm+Up/2I9xV5mrlskp4e+7Pio3s+VPo/zx7ntuAU77ex27DsyIoOLT3w1MP0xVOvZ5MzP6oO7lXPf44wY99qrO79jH3rlVnBb2z/wjEO/vGe/378F9bzn+CztUd0vP4fZux1ZHEHf03XUQYGcfAPLM6XlCThMVb7N7dd1kn6Cp+FtswfqO/r/tgYQJGNnv+8+8wL/8tba6Tw0VT8CQAQNjnzLFO9sWoyGZd0efNOASgTR1ECNa8MbHzqmcpNM27jV/FUwFGFvMoWgH+0J7PB/1FBJ4J8DUF58dHh8W8AY+IWjeGWCTFJof29xqpe72fKw+o0qgxRDzCfPWPt0i1gmdeExccmZx5wf7X3gGAj3s02Hs05/qSnI02WdX8Z0/aGuIvzGKUOGx7/iLvvpU+4zx3jMY1784nCIVAe56GnR+i+lz7ERs9/njEWsaiae2OYsm7FxR1/aW5ZnY7hV+XfJ+s8dXja2XX4iLPr8FFn1+Gjzq/2HSj+x69/5B44/g6YmvlJeGw1QkQbbXODtASMOXDu/P90Htv755XtcD3/DcOfvnR62j0x/CFWchLtroIZ+63/P3VvHmfHUd2Ln1Pdd507i2bTaDQayWNJliV5ibCN4RnHcUww4PhHHCDwWPwgEBbHITzCI3z8HD7++PkRnuMQkseWQGxjdozj54AxRhhblo0RQpa1W7vk0Wg0mhmNZu7ctbvO7497+051dVUv994ZyUef0e2u5ZxT9a1zqqu6qpr1dWQ0+jQNfzbU935MJW6MsmmUCuWn7COn/tzavOegQk7D+FM2D+Wfv7iRzmRvI5uHXsKCiIAtqfcaV66+PoTchv0/W7+8gy3p/CrGjP6wOpLNc3zs7O00NfsVOjVVCim3IfzLm/cO8+GJ99FM/odzg4AAQgRIxt8L6eRHjcEe2fc3xf+H0iMcvWr6f35i4qC6CHpC00jzE+ODEi9ZrqoMivDwdu5Q9Xl1XvHHuMliN1y+1ljR9yCkUx8Ke4gCEZVoavaf7J1H77IPjDgb5c9L/BkAcPvAiHiSiapIAfeNpvfJX/kEd6XjOjM7BYg+Z1I7DWmBBwJEAKbxu+qd/NqFCdegCZfTq14XgSZOjJfDVU5INhTxtdCcDM6FdaO+eMqvp1zltbce2Ea5ou7z1xoigJjxR2z10iHw1o/fteyIANT1qBr5A+tqZRA33+e7IdO2czBbeEg61Ua+DujQAtvnvOJvXnoBGK9b83FsS98cpIijL3HiMJ3731As/bO185j4kOCLf4D+ujoU9eXW7mM5e+eRu+hs7gH/hwXB/hEBM8m/wKVdb8e4KeukxN+HVM63Fma9eHicsoX7iJPny0VqUuNPRJymc98obz3wBT56RvRzTbd/mpg5TNP5r0XRF+Oxbkwlrge1/2oK/sZVq/uxo+VTyDAOIYmK5YP2yMQnrBf2OYcwiBTa/n2IAwBQ2eLW83sfpzPZu4nzkFgDoMEy2Jn5rLGq3ynTvPh/4/UXM2PF4juxJSktU9D7G+Lc4mNnb6eZ/APW5t0q+ar6bAr+1ubdU3x06mMwW/iJZzmQhpAhw/aWO4xLVrwe3PXWsP9vIr2q+n8aPXNUXxQAbf+fiIv9c6P27yPPS9VNwPOCP2ZSLPaGdYOxt1z5t6y/86fYkrg59MO/ZU/T1OxdwsP/eY0/AwBGp87sAU6VDqdW9+KaZJTWtIYcsdXWNUv3gVR9LWnZOZ4rOI6WQ6lUOxHIs3baJUijn0sfeT27tL40ApHNc1Qs75eCZTB1DcgvXH7wUPERG7Gf8al+mZRHlFkZAOjwd4/A5euavpQtcCqU7ydOVhT8MWZ2YjL+dsykZP1EEvWNWr8Oz9qvcenQEKYSN/rqWbK3WTuPvgDeuvYapWvNokja14gmdrQ4Jw/NC/4YNwE60utZR+ZzLi6eZZdu+6fp3APWyyfuKf38RVknX/wlXWX9/fK6yD5wMmcfG/ss5ItPzq3/Bl/7R8aSrL3lc+brLl4p8xP0Uf3KpJpxcdU1n8kfhmJ5xKtXSPyJAAqlp2l44rP8+Gmn45g3+7f3vsLtl4e/RGVryqVmgP/HrtY3s/5OFW5Nwd8Y6L4dYsZQLYVur4KzFpnzEp3J3mU/v3cPqCm0/Sv09ejJJ2Y4jZ/9V8iXH3WlUO/lqemLidhVbM3AW8BLTfH/mEkBSydvwLb0x716oLYeaTr3v9G2HrCe3SX7f4dUD00u2Yprlf4OD1ca69ld03xk4nYoWcIkpGAfCr3RNDqwPX1P7Jp13Rq9RGoG/sHk7TNeNf0/n5iZOwQmwvMfLsoMQoP4g5L88Rd+m9b/s8GeTOwNa1fE//iqt8Ru3PBVtmLxL1ln5h6MhTzymQioVD5IE9Mftp7Z+Q/Cw/95jb8JAJxPzBQom9+ObenqzIGzrpLca1ldx985m4mq6+JqxyJJeUBsQFi7dfECUvOxeY5m8rWZFuIwNwCQ9ZPlOw/5fvEeNVH4FfUTyuHKSM4binG+f9h59SySCoig+6i/fhRWpnxfaUh++LtH4PK1a5Rpbzv4E/b7lxyFeGxlFPyxJfFnxoahr1mbdo8r9NONkmX5crzc0dV+sTV5I8aMAR3+RMApV3iQvzIubo5TyZDKBgDolJHcbczVvoBRKpFW6Ov360eeOsDFHXG2pPOLaBptHvk1H++2GZ4rbrMPj37G3nVsbj+Of1tS1q/wq8ovkjLe3npgkqUTn2TLe1dizFgZxv4xEVvJFrd/2ly3/DZr97GSQn5z9JvJlYA6c3PLV0UfCYH4k2UP89Gp28ov7JO/FDlv9m/vfWXMWDf4MLQZH0IALf41qgy8rmar+uN8ZFJ+E9sw/saVqwewNfVfEZF57M/xDyIRAeRLj9unph6R3sjVZf9B+jlUfm5vLnZD4m4W77wWTbPXpZcGf2SYZC3J21hX62PVo4Ob6v+Ntcs62OL2+9DAeK3f8/TFULMLAgCYzT9pPb3z88JRxn7+VRWvipPjA+u3/Oye47Fk4hOsv/PHaLBupf+V8Mdk/Brsafso6+v8ez466X4umBf8ffp//Xzoq6L/p8mZSagsr6y+oQr3/Me6Wpdp9Ilev+JzQRD+BksiY7fF3vya0+pihyMEZJCKL8WWZB8ADABRH8TMfmSC//EqCDL+RLxEueJjNDp1Z/mZnfuETOc9/iZUH/bQYJsI4Oq581Wlhi07EnkzqHcTo/Sgrckvy1LxcR5IJ2emwGAFf31EvdAnPmR5RB1dv4LeJWs/PzKmev3cKDnGcm5IxtJFtRG4jmqjUf7KeJbypYcgbt6FyvrX4B+PrcVM6loAcM+2ufkHyQ8Vb6xf3oGtqfdo2wcgQNk6ykenNqry6wnn2qLrV5ZRcS7o5t1U/NmSTjDXLb+FZVLXe+SryotQ+b7F2NTtfPexSUmXsPWrK0Nd+JU37dofv/nqu6Gr9evIhLOr/ew/nXwXG+z5Huw+9nSj8oPjVT6n+p8Gf+Jk0dn8F8pPvSTvK5l3+6fRM9/DtvSHdPjP3VZuMJ1Yw5LxNMydzqajyPgby7pvAYP1i/JEdVwXiJXZ/2z+X+ytB5yPRfryb2a8vfv4Huxo+T62m3/l1tcH/2T8CuP3Vm7gG1/0Oz9dpFD4GyuXABvo/gtMxt37SlT27fyWrXH7xMRtfGJGXM4nUrPqLxT+5V+8uDn+J6/7CizK/E8EYGHwx9bUx4x1yx7lo5Oqtz9Nxt+n/6/qE4F3WFqw/p8KpVFMJwfnQkI9/2XYkk5fuZPmAAAgAElEQVRW/UCgTOHxF5+ptc9ncxdoGmns7fhrTVGaQyGe/4iAQ6m8h6ZzX+CHRh+xdh9T+aFGaN7xr43E+Mkzz8yLBP3oOJhsPkVT2QI4I9Wyxev5Qul8E+WKz1DZUo3Q/K6D4mVqlJdqNBomrYYwKL9LHj8x8TBwinb+M0PG2ltuNS5eJq6djVLPYXXkxlDfVRA3VefH14hyhcesF/YdDS/XZymRVoiLh0gN449t6SR2trqX/gSpM517AGbyW6ozrPW24TBpw7Zhbr90+IeULz4RtgxosAy2pT9lXHJB2odvkNww8fVRqbzD3nPsAQVfkebF/u29rzwPNnd90dWPkDGTnz47FEGurKcyLetqZZiMvbv28TeH/EyoaG21j41v8+Hrp1dD+POTkxbliveTZU8H6lklZNiGrak/hhD1ociuTYs97QOYSX6qpkeALkQENJ37vLBhWsXXT695sX9+ePRLULR2gUg+ZcGY2Y9drZ8wVtVOpmo2/uHJq2ez6k7k1wgvpf3XrnnggN5L+VIvEOjqPjz+fo90dXShC0Fk8wI/ffYfrUMn31R67DfftnYfc3xos20HhPBGeCnxd9YPcXv/iefBc8oGuX7mh3yYE5UgX3JVBtm8IMSHYK9JQ7X/9Ppo886Fk80LgOBscvWrbB3p4jl4X8VG4eXk9+PFhHDF+jEf/L3fA1Bd18h6Yd8eyBUVH84KwDBuXm8M9a2WQsXyhNHB75U+Z0s6TUglbkXG4jr8ybIn6Wz+eyHlVn91nk1fZsJaXFPxZ12tjK1c8k5Mxdd4VNC0cyrbU/yV05+3tuxXbXiUZ6pV16o8QWkDednHxgo0MXNvqNNYnLKl4zcYF/Re4yPPzw7F3zBlgLlz/ZWRc1ecSnwm/8XqOf+y3Hm3fz4xU6LZwjZfPaVyYEtyBTQZf2P98kshHlvjyeEsC1Bpl83/1N55RF4ypdLB1/41eXTxNV72nlf2g2VvqenpUk6BPyJgS+ImtqRT3ODckP83VvUzY2n3hzFm9s7p4TJu72WxvN/6zctfg0D/DwD6umu6/VsvHZnkM7l7ifO55xAf/IEIMJW4ha1csj5Ah0bwV8qduxb0VMt/dfT/zkcXXRT6+a+Z/t9NAfgH0nw9/yEy1tFyvbms+3Pxt175ttgb1g1iJum3Bl9H5xT/mvHz0TPTkC1sc/sOaVmMTPJsQ4jZB29alO5dxKtHfzoKA+UKQkMV1qq58guMVG8MnLWZrs0mIk/v+m/X3hNxjRrRGD9wcg+4N2OA5h4ixnOfeJmC8qvSOw1CzdsPf2+9qni4B28zuftrX9QMhz+gaWQgbr6bdbbKcrh0r9ODSWk992zNwGpMmNdWJYIKfypbW+xdR7eDHhMfPKWC+c1qUa1em4t/V3uctaVvnxMk6IJqDCib/3fKFpxzz3UPCH76yWlVbS3svQtv69f7ttQGlCHsHxmLYzrxETbQlQRvewDp3i8+BCbVdawo3EvRNSpbB+29xx9V8Fow+0eD7arpFcb/t6f7QsgHhXwt/tjdfg0w7AAVKXw4cbIgZmzU8ZPufe1fShsaf370VIHOzv7ca9A++BtshXFh33oNb53eqngAAMC+RZ2Qin3QHSgvLRQ0IwI+NXsfP3nGebOu9/8Vkv3svNq//eKhx6Bku5f0+Jy9jqbRienE+1hnq/x9CpF/vfhXyaf/rwV66NXW/1uh7d+JJurGnjZHbmP4+z07+p69D+fk+Q8R4hiPbcBM+i9wcceP2fLeX8Vvuur++B9fdZNx2VA3vErwl0fx/0m1UR9pga8mAMDqn0MI4Zf81NKSdC+mwSk+Nat/NSWuG8NqC3A2G/vqrYh3zZw4jUC4l5eAOekLpa3W7mPiZ54BvKMtOU4Xz0HthMIas0giL128331ANbqsNUxjZdb2I09BydpX4x2Ev6NGS/Lt7JIVzkOH7ERU96IO8kjYU07Wnr4FY2a/Dn/iZMF0/pt89Iy4CVaUpZItxAlOBcDtWBxyTjVBVf7G8Wd9HVdhOrFBEFj5k58V0CkzL/FXTn/V3vuKH3+dfCX+QjoVXmI+XXytXJTNWzSb/ybZPBfa/uPmteYlK1Tn7+vah+7hJ+BhSLV+1Is/EQHli9/hB06KX/ldePtPxI+R4+8xhP9HFqRfdPw5f63v8k75K6HF8lE+Mjms5RfB/n3ig/GPxzZVD6cQyAd/g3WwZT2XamRFwh9jJsNM6i0Yjwln/pP0K6lRtsb4/hPfV/BrpP9omv3zV8azNFt40HPcr+crsTC3HSCVeJux4UKnDpqJ/5wgXf+PSn/zauz/w9t/JQEAQBJjhk5flY56/IOeHX3wP6fPf0iAiAwTsSFsSb4Xu9v/w1w/+PP4n7zuv5t/eJn4LY7zEn8XKPbh0SdqCQPX2iMEoxaGfPIjWFAsuxtMubrmUsVn7nSa+uSRGFctm3a2FisDz2L5Z4J+qhGdCAKAF1i/EbSOX1Aa+VpufPKfWMdBI80quWaqQ+nLT06WKFu43+3cg9sPxs2VrCVxncBPNZMgywchnWgMrnTm5UOdmEn9KQDo8bf4Hnt4/CnQ15cf/gI/T8mEy+pMtbu9NQV/46IBYH2LbvXK1utEs4WnibGj4HUcsh6h8VeQXHeOLLkTl/lyAGDWjmObweb7a3oH2D/GzE5IxP4/hU5+eKrsVZfe1194iNMUjZ5xPiB2zuyfT0x736oG77VqGv6YSZnYlt7gk66qj9BmDRzmR07JS8Ai27+UDhTpfPHnp8+OQrGsOEbRU4BqMRAoV7xSI0sm3/o0r1gZZ+3pD6jkqNobEQEVyj+sLjcL6/8X3P75K6cfBZuPuVLK+ItRcXMFJmLXanRvBH8fCnz+ebX1/1UKa//K+EbwDxAXVN8L//yn0gcRTUzGN+CizL3Gks5fxv/kdX9j3nB5H5yn+JtCJLd3HN1hrF66H9IJ71rMc0GIFslf/7XsSF+vDCZhxBjwjOYhm4/S6enN4D+6Vo3c5AedRsJ0skTn56eLn6wwFElf+8ipR8yOls+AGf5LlYAI2N7yAWPd8sfs3cectdLNqCfOlnVfCzFjfUWOVzQBAc3kfmRvPyy3O7/6ilqHc1QZAYTS3SfOuWYAwLElkca4eZOrrQfRTOEH/MVDddfrQoTxV05naSb3OHa1+W7eFgkzqT8yLhq4z355eLoO+UHpIVIdl8oHrZeOOpsez7X9R6Wm4Ypt6V5AzfIfD1Xqlzgd56NnVBvvdHLnxdfyk5PTxrKeUQAYFPXzpWTMeQvVkE6EOACpuGpfi444jUz+ANTtoJntr6Ew63cHj7KhvhewLf02r5qK+kUE7Gh5Bxvo+iEfnnDe0jZDz3rp1dj/10MW2ZyH1KlJdU1AnAoAuA8Zhv4YXyBXIgaWnQaCOABkwMA2NIxk9PntSvtERIBEbDXEzXuNluT72M2vvcvefuQn9vEx5yhqgPMAf1O4ZlS2LLLsR4Hob8+L03YSsUk4M+Ns+pUL0yRqoJyl8nbrpcMHIbxu9aZT5dONKIMagR+/eus3ND97x5FhY1X/Y9ie/miIWcY5SsSuMZb3rLV3H9vSBD0YAHBjVX8cM6lbkTETdGTZo/xs7uE6ZNRFpObXEP7YmroWE7He0DpwXrKHxx+nktK/Nrs9NZSObP4Lsu2/RsNIK/J4yWDr2Zqla+yXh+V21Ei5mHfdaDBRsfwkZfO6DdYLbf+NUEP4Y3drNxCF/PJvtX5ni2OKyAYxrCMsW8xC3Byv3YfAH9PJQdbZavLJGd0DTCj8WWfrDb6+S6ZiedR66fAWHb8FCFORMh3a9B/ESfEFVt06UdxgrB7o58MTR5umr89erTrpfO7/w7cjhxDGaTLbqI8J9wZAEAqF0lH75eE3W9sOyRuX68aadbWaYBpt2JpKYk97B1va2UsWrQGEKzGTugIYDqFpZILV87wRAEjELoWu1u8YV676dzbQeXf5+X2KDde++s0b/qaUGPjh0R8Zl13wPyAyMM0nRATpIYQB4qlzpY9IlfW7pf+gbMEZAYetr3rT6fKFSSc3Fr9ZiXA0t1bdyat75eSJp+ncg9Saei8aGGxQjjiDJakleStb0rmNn5y0FPLEV2QqPDzp2VDfWogZ/jNohfJT9m8POIM8X35yVp4tjLFMUg72JWkTsE6eX7jrnvV2AFvS+cbKnTN7Js+iue8pW9iGrUnnoSZ0fUr3YhpVfFP48Z3HdrBr1w+DAfJJUUpC08iAxa8CAPEsdj99Q5Y/2kQCcW4hwG8UfFX8VfdR0oWx/6jUNPyxNZ2B2keIwhHliyc1/JvdXn358dFJjoxFO0KRKA0xoxMAxn1S+dv1yiUMW1N/GElssbyJsgWdrroHjHNi//axU1uN9csngRndGn1dhHFzAFPxtQBwvGn61j836NfHn5/9f8xQbez3JQS0wLIdfo3iXw81zf6rH8ObglNTAAdPjgDAPgDYBAD/ygZ72sz1yy+lZPxPMZN8G5rGYKTJSwBAxpLQnv44JmLrY/HYh8tP7zwYsmy6+yjptPh7Ets7j+6AfGl/9auP8mZPEE6/UeyEl48RkdJ7TsNQ8BfSUMlyvrjqgMoBIOfSQ5ZFUqBOfq18oCZVnJjH5qM0MfM0uCuVa+7lv6B4OU2Y9GH4OxTO+Pzwh9pSFRmfwPqwfr1vKxRKW4LwlwHAROwm4+JlAwr+svwgfRjGTcCW5J+haXbqyk42L/BC6UHK5oPqV3lP5XLB3f7c/FXlJ+8SoIbwZxf2MbL5692bo1CSjy49MG5u5kfGItVnxPppWnr76KlJKpb2RbF/bE39PmZSfvVbj76CHMW9HM5p2to3vF/ic07sn/zaptb+m4cndqQ7ALE6GaW3f5c+RH7yF7a9OhsCg/pLkRiTeUbC31izLA2IV7uqSocjVDHm/BlHOgTTObV/fvTUQeA0t7dCKo+330CAmPkHTdbXTWL/L/sZ8GBfj32eE/sHAADEuQF4GPsnAogZ01Sq7dFsAH+dzQc+Ly6I/fPjp6dLj2/dVP7Jlk/yo2Nv5FOzf09lW3gDKeDvU1+ICJiKX8sGun8c+y9r10gyzwn+TLhhAMCoZHEqWd8hAGFThVOIapjzuWYxrrZhQjOzWNvEIZDrM9NSeiLg2fwYuBsrA6yu+5IHYJ69T1VetQlPQb5Lf6EIomWr9ps4eRAACqXN1gsvi6M4vxlpMQ2TruV7mZzGqkqjyx8kX8VP1scf/0rl+MlT8a20sWyeU6H0TSLh9AwF/i4iAEzEBqElcaOCpyw/qHzcuHyoD9OJt83Jdi4E/EvWNr77+PMCf9WfQxr8NftLam3Jqc/qwynJCRvDH00jiS1J9xp5B0fRBgRb5KNTv6t+3VGu3yjtTYu/T1lACpPv1RjkS89FsX+MGavZ4vZODW9Ztqr8XvxrbUjn/yTOBsvSZPYo6OtD1GFe7d+z3FNsGyr7DycvPP42twQB1UvFBI93k1/d9i/FyWl1/H3sH8Hbx/ngr9dPlcZTHpqc6cdkfKAmB0G9/GgujPMDJ7fr+CnKpKuvBbF/PjFTomx+7vsUMv6K/h9bU5djT7vumN968JdkCP2/I7826eBqm6+6/h+T8bklokH2X31+wnhsiiZmLI28CPhjqP7fbf8kl2fe7Z9KFpQ37TpYfvLFO/jIxFspV3ySiLgb/2D7x7i5nq1Y/PXYG9b2quvDo8O84S/e1EYK9sGR7wNRwQW8eIGgHuk4jUOMQyGfOAsv50eAuV3YJBtTTUdsT4+6BhpOw3F9nIOqvMiFwZws4aELBZ3mFPFmEkZyxLlFJet7wtd/HT1BcS+nCTPaC8qvum9W/sp9zOz1xV/NW/fr+bN3HnscbH68lluFvyNXaDesNfU+48pVbR59g8vrSs/6Fl0HMXO1Dn8i4JTNP2QfOplV5FeNqjX4q2YE5HpVjTabgz8/O7sGGUsqn0CUM2oE/MT4DlDXb5T25ot/iPx+ZXT9YSa533WyVJD9A/SzC/p6FfIjy66llAcgNR+lxp8K5VF+crL2lXOF/AWzf7crVvlqKS6cvND40+npSSAqhLH/2hjdNNLgLb9fecO03/rwJ0G3UPgDFw63qAs/TMQun5MlPqSJv4INAHA+Pr1Dx89TpvPB/hFfmiuLhL+q/7f5oDHYI77RbRT/OfKsfCBhItFJ48rhh5+qDs6Z/eOiTAcwTLoK4Wf/1ec/Pp0Tl2M3hn/I/l+aaDkn9k/ZPC9v3L7VPjL6HprO/SsRWTXdwtg/AkDCvIb1dd7DlveqvqQcpjw6/SLlV46Q7JeOHIRsYePc5L48S4juazmNKn3tXpEe3MlqF8XyBLhHboAx03J16Cjo49KBwK2nROKxUrKeqoclkbfF99kHRjZB8GgszGhfMZvUNF5+9/5pGab1WDkDqLp0BABg9qGT05TNf9dlHjL+qjaViF3BetqdGe0o5a3dGxcsTmI6+b7KBjMN/mX7KD999vEoZVLG+dqAXG4Acs9sRCmjMo71d633jC9qcr22SpwsbE0frbO89dRVw+Xlp6ZGwLKnQ9t/zOxkve19Kl4NlMlNYh2LAQ7+Zcs5wvKc27+7ikL66ibiT4VSZalnGPt3XHY6sSRieYP0qIsX62lLkmVnRLVd1yr8EXJwZkbcYxNZL1zccbFblqrOquEIAPnSSHXAqWoDUcofWseQefW8EuZR4txS4e8pOyKAyXrZQFdHE8sgyFHVq4yth289NhtGr6baP+vMCCfyhbH/StnpzMzxOnRU3btEB9q/l885sX/rhZcn+amzn6KzuX8iTornUlC0kUq9IiJAJvV+89IL3tkkvaKWoYI9aEZIfDr/TfIbES8ElSznzP+aHmTZlucjIUrSPPg3SEQENJN71N51bBzU9eNUtp+OTj0zcI/KmBAmp5fzynGyXJUeUWZ4Aqg2AtfxksmjB42f/QFwHulYV2QszlrTtxqr+p0jbKPIBQDgbN3gBkiYr/eTQ/niY9av9x2Xgv1G3A6FwV9LVX/RNPxZb/sFUeRToTSCPW3OUWVRZx8i4e9zr0qvlctHz4wDQRZcpLd/RGQ0NTuoKYNOB6VsrZAgKpVH4Pyy/6jUNPxp7OwYMMx5s+gJW5L92KLcx+En10+PuvDHjkwaLFu9j0hDlCsOU8mq2/+znjaGBhuKJLNYPqzSP8Q9hLifF/vnJ8+MAafQ7QJjZgdmUvJxso3gr5MUJpEfL0fWeWH/2LdohY+uWqKZ/GGZl0KmrKesh2eSPAJFleunR132bz27K0enpu6C2fx3vftS/AkZxrE9fYdxxSpn+dWC4y+PwmqjBWvz7sehWK6scXctr9H8usJ8KkIVpdrYU3m1JyvM+Pj0FNi84MoPPvqpkoUFSvXq27JH+Uz+e9U77yjWa9yqNCKJ8TLw8gBNHM1xRRrwiRdHfjq93CNRVX3V3gq53gCI16o2pbwub9q9B3Klp/X4O7/kxjNuvsUYWux0gPLoVjYQsbwc4ybDeOwdaBptoCGy7CnIFn6giZZH1DKJ+Ku4g7/H88yy1o0/W9IJULYHQCZxyYJsLyV7lE5Pi3xEvmGwDY0/BNelX/lrv3x8Zqr2ABnS/omoH7xlUjlflU5+Oqv9mUsJV/j5ZP9eVQHUdunVvW78+emzk1CyRkPbPxGAZfdhT2tGkhto/4r0DeHPVvZ3AGNuGwvCv1DeIfFzKBT+2JExqWTNndqibWcuGoZg/P3a9oLbP53JTgJBSYm/O2Xtip8+OwhNxz/yE+qrqv9nS7tWKjXzsX/ixLEjc1hIXT/+TpcX1v7V/M+J/QMAlJ/bk+UnJj9LxfJWVznC+P+4udpY1v2h6t2C489AXRFAswWLZgtfJWedm7z+W/wlOU5c0yBVgmrwLL7qISGdTc4mYFFxFQO9fgBunkH6iWHyKykAoHzpCfvZ3fvA25AAvAYvhsujfFV5VM5AiY8mTJSl00PFQ83LVV9ynSh1DqOPq75oJv9NIirU5Hiwqv4ntDOMm72QSLwN42aU+gIAYMZrLxrATPLmWogCfypbz1svHdmm4CE6mDD4i1yFAqE7TP2A1Tj+MYNR2RYGOg6GitfpNVxpnGZy8iyCnz4N4a8oky693l5mC9NgsIKrHAH2j/HYEkGHsOUJwr/G3/XrUaIWfr7Yv5uU/txj/03Fn2aL28Paf3VJwErj4kHxiMhQ9q/Rr2780TQGMW5WZ/Bk+/LiTxw4xs3fCbx0+mnLg5kUA4A5u1b2Z5KjNlhWIy9sfS24/dPY2SlAKCjxd5HYPlFe2qcrj6ifrjwC/yr5Th564l4V/T8irkNVG/Kz/3zxKCLkNHL89PHiLy41D2P/annnxP6dvOXn9ozS2dwdZPNceP9PgIgMM6k/Z2sHxQ3BYcrTFPzFAol/AADc2nboW2DZ4zXFndGYTLp19kFxSnLxdzbJzelVKJUAQPEBFT8dfMT5DUhkzSx7GrL5b1Zf32rrTfiVKzxMeu6TXs6nuvfLq5OnSieREv+G9bF2H3saStaeuWQ+DlbABVuT7zBes7IjhAyXPmxR5kYwjRVisUQizi2Yzt/PT07Ky2DqqV9ReYUDUzgKVNZvXfizRRkAIuF85xC2iGyKzuZU/GUZ89UeZQpsv5TNWwioabegLnbMcDaSq3SLXp7ASUIV/jU+KnkqvebF/r3NUukUZftvqj5oGs9UNsaGtP+42YsGrg4hI4x+9dcvwz/07iFSKl/Bn/Mp++ipbXL5FfK05cGONEPGpKUu/g0QM8mTPvLClB8C4ufD/i1Awa59nyVqcfGQ5QmDv0JM6IcJVXlC2aNP+vmxf4uvDy6jZP9Eu+wjp+Sv2tanj0tcOPuPIGN+7V/440dObaJ8UfxoqKi8vv+PGYPmmoGbmlgeXV6Q02tmKysjBn789CTN5L9GrhHh/Kytr5HrYcjTqTOanJkCZ8a4OQJDp6Ri+Slr+5GtoJ3lBQiIC0qvGuWp7lWjQtV9GF5BOs2RC39tvUWSy4+fzlG+9GBtX0fYAWM8tgE7MuI6/kC5bKgvg62p9yCKX5eU5Fn2PvuV8U1BvHw008eFKJvkIxrDv3LWeNT2qKIoPBppdyKpOmAtL7LsSGvIA3hHL0OYZqvG/5zbf+g5mnD+vy78rYMjW4Dz8dDKIAKkk3/Culp1M7dR213kujN/b6gDM8kbAnV1CBGgbO239w7va0QupJOMPB9RVM06gjAxjvKkWRQfdk7sn5+cnESG0fr6mNlap9ygmez5onNq/6yrNY4Z6ZhoHQn2TwDb+bEx3VfMo9xLMiI9XzbreacpvKzdxwowU/gyeZaoV0lTNkRkGDffI61o8JPbPPwlps4vd+7tl4e/DFa0jZq+628D088ti2C97c6HQHSvMLw8lOvI/NZkBZCT1eZZOjv7L9LRfarOR44Dxb2cXlc+fXn1swt+vFRydfhXKLjOdB2wSk+Rdy2ffWj0EbB59fPYElaa9cfIkLGOlluNFYudD5ioyuci4+JlG8A0NmhLQgSULfzIfumweEKHilc0/PV7XEBOI7mIJuFfR7tX4+kXVjf+AfnFOLF8Lj9F+WLlwyz12b+Ll0auSN4yuGRJGxH85Z8v9q+mBbB/AAC++/hBype2hLV/AACMm9ezdSucE0wC7d9H37rwxyVdGyBmuv2JD/5EBJQr/aj6YUGRVz34SzIVvwBVh0LORRT/f37Yv2oVhYqcgU7CdJaFNQN/X1kBSr0q+n820H0pGCytlaKxf/7KxG+EjewAjeCvef7zyPeqIpd3Qe1fxcs+NLILytZml8Jh+v9k/FK2qn9QI0dFzcFfkcCV0d7zyihN5/699hZA9G01/X0K5pCzhkvVnsRlD86ZxoiALUlnhDnX0c8WcwBQcsl1OTxpvZooT16TpdJfc0+F0kZ7+5HnpQi5zkSHqqxPIc4hXX5QXIuvb8I4LV1+1b1XXwLwrpHxXOjyq8oiywMAAPulw8M0W3jMdX67a1+IxsnGjOvZxQOrpVDRKGvyMZMCTMVvRdPI1PSXykIWH4N86WHwdwZhyzxXVnEviWuNo1i3yhm8xvCXthp4SDVoVpNcTl2brgt/Kb+YXhWn1AEr58JHsH+tXkGdgUrnudfYzjrW2jnsoMZfLf9c2r9Aoq/X2b+HGsKfyhanUvk7xKubPkPYP8bNlawjfZM0c6a0f4VcUc/I+JuXD6VZe/oTaLC4K5Uf/jYf5cPjj2rkqXTW1J80wECpocsPzXOqRPP/+rgFtH8f/6/q/y3uvAlsIv7yyNMJEjBWyznv+39j1dLrvNn87Z8sO4cxY6uUqX78Xe01Qv+vpgWxf4GHq8z2yycKNDX7/wL9v9z/I7SxVUuvgAXGP8hxMgBg9v7h+8CqfvpYXAEiFky89Dt7Xxkl5QcE4sTJsj2zFDSdz0HtdabQSFx8w+iDav0V+ckmZ/a/BD71JDCQ4+Rwpkija3BBcnQyg+Sr4tx5XRhXyV1n9eoo6wGQLTxEnLLKZQbqM4ABY2YnJmJ/Vt0U5ycTzCtWrcB0Qnhdr8C/UHyyvHnPfrcU33oNg/8cf1V9SkkUZWgUfx97DIj3b6dR6kLFT5dOZQeBMjGVmPuSZVh/FNxZhJbvGWi4ZGrxP5/sP4y+4n3T8ee7j/8ESuUdYe0fEAHb0rebr73IOdFJJzNIfiT8MW4yHOi6ERKxG5U5FPgTEdBs4VFr64GjIeXr69YmAALLM4Gg2ovgtP+577aE9//n2P5xUSZJnJta/BX9PxVKp+qQ74e/SrBiAsdFYeyvfvy9afzS+do/IbzJ8yXwAPunfOkFfnZ2qgEd3Xq4fKcgvxamwr/WnsPI9Jcf0f4DrgFMYzNxKkmF8u3/kTETEa5U6D2v+DNwjyacPxDv7T2vjNFM/l9J9XqzRmHvA17HO+Fla5KPT3s3AbuPBlXoEyBXJat2reZFhdIT1dl/3WsXbd1JeeTRpyqfjjeAmp+Ovxznl1+Ff5V09UsqHUTiBmUAACAASURBVHV/urQ1ncub92yBYnlb4GhfisdM6hbjshXdMj9JDsNFLTehaQzqeJHNCzxXeoiyeXFdY9j6DMLJtwxSpI63iq8v/nwmzwFxPNS787nXlElMxWX58r3cXhrGP+BXl54DAMe4CRTV/isOWqcfCGG6OHe4axYrdBs+L+xf+SXgwN/m428fGMnxbP6L7s5TItn+E+Za1tfxydjVa8QvasryGHjliWnk9CCldcWZV100yNpb7vLM/vv1bTYf4VPZL/rx1ejm0ZHGz1q1CTmVfEU4zRYXa8qnsmedbgtq/5iMtwEndx1rjwB1tUudvmK8mEZVXh8KeqWqLKesm0rmgto/G+juwJbktRXVw9o9AXL+C77nuKXQsT786/KdKJfHr26bav+K/K54Pn52FErlo8FlkIjhpT68ZX1192H0rd0zIUJO6Lrnx059CcrW8bnPNfvMmitJyueM6jzHhMrvLyW9ytY0MFbwHnfmvF7RvbJW8HVvOPbqWHndNUlnZu+trv2v6OD+9eqoD5cHXA7J4arRmxzOFfEq+UENX59HfI1VqxMd/n4zKFqqyaVs3qJc8d9qn9XWkdxuYuYa7MhcL/Fzlce4eFkbtiTfN4e3An/L3s73DYtLvKLUpypeTz4bnYg8b1ZEvpHwp5k8R4bTXqw8Uy6CTtSLHS0ylkH+QdY1LAX6nRByAToybWDzZBT7p0JpRAhQ8a0Xf198NfHn1P4RFe2htvRCZ/8eagr+9pb9j0C+uFHbSXr6DQRoSX0UOzNvZ121fbFBdRDk/1R5AADA3DCUYf2d92AyPndyitzGJHyJiFO28GVr40sHoQn+n/JlDgDeTe8qbKo2QZYlfvcknP8Pfy/rGpZ8+WImmQQA05VChb/zW1l6NerDtx783RTaxyj5nTf9P2ZSYF624ubaINbz9kht/8SB28dOP1pd/y9S/fh7lnD7kDpehW9QfF327xNei+dHxrKAOKKJ15YRM6khWGD/Hxo0a9vhcT6Z/TxBmK/wAgQPCJxkmnSc52i25HkY5BMzFjLkynzKlT6a5T8hiACAsvnvW5v3bAuVwf9VEkDwQ6MKLD+QQ2Kh5BVMfnXs7aCj6iITsw+OPAE2HQ2VuqobMmSsveV9xuqlSV1SY2jJ1WAawlFnng4aaDr3oH1wRPqabGQKwj+Qqg9jzcF/cgYgFVc4Ip/2bxrd0Nmqj9dTw/jXm461pzNAlIxk/wSnIsqdT3r12b+XmoI/P3mmQKenP0uWre9AAVy6ocHS2N1+n/nai/+IdbZGxTN0+tjr12SMC5fcCS2Jd7p1CchYKD3Pj5z8CjTJ/9PkjIUGG/Vw8evqKscBz2dbb7r9Y2drB1SO9fSSpm1iS9JbLxHl+lL9jxMA51H/b1y6AqAl9W7f1Ko6zhe3YCp2VJG6fvwjHxXfVGqmTTAAYDR+NgeJWLSDcwAAGGvDRZkMLKD/l0caqvVFtTB726FvQb7ks0wjarhPHKcsTM+Ka+4dXThx7j9L3CzdytZRPj79JZqtLQsJqieuSecpgw8PkXQAqxptGAx1o0tvGKJ75kWmOaPV6R5VT27vPj5J07M/pKDXgDLFjGuNiwbWqmSxJZ0mZBK3ooGaAQIBlO3DdDb7hEInlZ5+YTL+0cld9Ibwp5IF/Ez2mI65ijAZHzT6FokDmXrqJJKeEN4mVOkAe9o7gUA6FlEm93I/1pY6XL0LbxP+YY3QObb/hjrgpuNf+uX2HTQ58zntcXoKwpjRh91t95uvveid5oYLnYfGpvlE8+qL2tjS7s9BJvXXyJi/bxSIyvYYHzv7GWvb4SmBX0P+n5+c5JCMD/tI9QbFzBXQvLa+IPaPfYt6AVF/Qo1EZNkFjBvi0qhm4F8Pnff9P2ULg9iSuF7DX0s8V3zQ+vXL4hK9ZuDfDJr/Z6KQ/T+VLIBCaRyiEpGJybj8pk5FTSur09F7OlUhkRPH+MnJHD999k4izRpN8RUkacLlON/Op5bQpSfliuFH+fLrOZLiNDoTEaeZ/JesZ3YdBL0Bi+Hyqz25PnXORZdO5i/ey/JVPELjqkrHkvE+RT4dyeXWNcLAOqGJ6e+BzSMZD5pGBuLG+6pngrsb+EUDqzERu84X/3zp8fIzu4+Dvk7qw58kAw7aJuOmpuBPI5PCmePBD3poGmnrdwcd7FXtRJQBUjqd3qpwFQ/VtZhX1XEyY6C7H0z5w0hVUtg/WTxLhbK8htrPJsLgH0xqvM8H+6+H5hV/69f7vlXddxZ6lgtjRh8u7vg3NtR3R+z1azsVsiL7RMykIHbdJSuNwd6vQyb135ExM8Q4GgAAyOY5mpq5s7xx+wty+TTX4r0v/nxk8mW9ZO/yWkwnVrCujDNwCfT/Pul0ZWi6/bNMcgANpn2z6yHLHrWHJ8WBliyr3rK6KRz+jfg653de7J+tHWTGqv6PRRnIAgBQ2ZqiU1OPUNlSlaF+/CPO90n55bI2yyc21P/zQnnaI+Ec9P+KOFcZROBUa4fkdUNQ3rj9CZotVGZp5f0hruUhBCCnqRWY9IV30iFO0UzBGWi49RA7BSV/DU+ZdLuyCQCK5ef50bEHQF0vIhBh4uRBQVCcg4sYx8HbQEUeYWTr8nnLgmi66s2/scoNUuSpulbdAwCA9Zv9eyBf2qSUTeDF0lnOn0rcxNYtH5D1YotabkbT7NPhT7Y9zfPF72jKo9IxPP754imXvp5tM16lCGt7AJqCPxVKu8jPXuQ6JQBclFkParxkeXK5G8bfJ60cV5NFJWsI0efBTG4znI/Yh06OSjrL8qPh77c3UYe/m8e5tn+3vop2odFb1Llp+POJmZK948gdNJN/uNZ+fezfCUeDZVhb+u/Y8p4fx2666jrjkgvSPrK0+GPcZLE3rOuO/cElf8EGun+Gral3IcPKaU/SViKVXsSpBNnCP5Sf2vnvoMYYpOtI+NP07C6F3m69avviAAAxjl3taxSyI/X/PnFNt3+aya9zlScIf8QRfnxMXHqhk+1QkP17KST+EIyxX9y82j8CtWEq8SGtnevCZ4vfpomZSZhP/P18j9of6dqoTg+Rmuf/pThMmG0enUP0/4JeC+L/5RGE3PCV4faRsTvA4iPy/rC5gqHwB+6/Wryi2OBKW6ieyCKCUdHJ5jlXejGfnp9aVzktAJBtT/HJmc9Z2w87ozhZBwB9g+KK9GK4jpefswWftFFkizwCcfatN/UDgZ9TF9Pp9OZUsjjPF+8n4gWPbBlLIQ7j5krWnv4joQzcWL+8EzPJd/uVg0rW83zXse0KvWSDio6/VS2Dts3pNu01D3/s75qiXPGwR6Rsl0K4saL3Cultiq69qPRqCH+FDFV7lvm8JqL9H6eTk2OSzMbwl515kF/yyjqX9u/WW9MuAqjp+NsHRrJ8dOo2yhYeJSLuZ/9y/4LpxHWsu+2nxrplD8XetOEtsesu6WVze1t0DyhgLO+Nx9/8mqHYja/5SzbY8wvW0/5VTMRWeuSpZDv9B6cSTOf+T/lXL91T7cOa7v/Zosw+KllToCJ122NsVb9zykg4/38O7R9jJsN04vJaOZxfH/zJsvfwV8azoPYXKh387V83aaiQLel13vb/xtpBZqxa+lFMmJ1aO1eEE/GSffz0V+2DI057lql+/OU61fkevT/y89X1419n/886WwGTiW6Pzh5S9f8k855X/28KCYIY1K7t3+4fZos77mI97V9GFrBWvG5CXp33kR0Ph5IVdaNPaCIigJn8v1ub9mzyyFU7RJVz1NadT5iOr19aFekcdVhZlevoy4KD+OriZR6c7zj6FLtm7R5IxvVf7ZWpcib4e9iaZd/n+17JAgAzhvquB9NQ7Q0AgMoyL8gVH7SPjTlvmhqpOzltXVTdBBy2rajIpQsdGLHgipUvAMBKTXoPUcl+HevvYnxixs8X6OQ2jL9cBp94josXpbEtFb6dAABN516olk3FP5Rcz7X+dBw/Ol/svxk0L/hbz+6aNNct/wC7eNkYtKY+FKW/QYMlsSV5C6USb4NSeT9b0vkCn5j+NTC2x1jSOW5PzhQwZjBMxNL81NQKbElciS3JK8AwrsJ47YuykYhsnoNs4R/KT++4h0/MiHvVmur/7ZNnckZregfGzWuDlQJARGCZ1BsA4PsBsgL7f42UpuLPVvT2QjImf+TRl+js7K/Av55VZdDbS0NbY7Ryz2n/j6l4P7anPx21IDRb/CFZXP5GjkpuI/hHpah1J1+Legddh+//M8k0FMvdkFLvX9cSwxKUrUkI31aUXKKUQRYkdwgqhwAAANbTOx6A2cKTkTdshqWEOQWzBec7ACI1s9PyUtnawc/MfLG68deRHdRxcuk6KC0D/cOOn7OVw8LyUumicvjh6xZ9Zegap1991K7tY2MFypceirL+FwAAYubV5qollwMAM5b3MkjF3+O7zrFk7bGPjj3to1ej+EenuQfJpuBvHxkFmsn/PIoKmIpfDS3JJPjYvyRX1qch/BXxstxaWmPNwGoAkJd+aYk4t8AwfhVSbnj863tYOF/svx5aMPyt3cey1uY9n4Szs3eQZUc+XQMZMkzG12A68d+MZT1fN5Z2PQsIe1lb+kVMJ17CZHynsbz3P1l3+99hKvGWuh/+y/YoTU5/svSz391dffifN//PD54sIeebQinmzOIiXIfxmjsM4//Pmf2ztcs2AGBoHKhsT2MqsV3QLcgnR/U7Uei87P/Nq9cwtmLxnRgz5f0xvkSWnaXhiXvsFw/KD85Nwr/uZ0hdP9ss/Ovq/41V/R2AMOSvuoKK5TE+MeMcfLAg/l8ulKrAynjKFix79MwnwbLnZTYeGbMomxflz10TNHpco5LIsqf4xMxny7/aKR5BJ9aRWA/ivRzv1dlt2GI8Bz0/kXSdtSxHvpYbCdeklfH3J++rKpUOunu5LLLT4/ah0UfB5pHaFhosCcn4rWywl7HVSy/FZPxaP/0pm/+R/dJhZzOoCgOA5uAfoRA1Z9g0/PnxsY1RTs7CuNmBcfMaiZeqfcwb/qCvS1de1pm5Gk0j/ANb2T5oHx7d48O3XvzrpfPB/uulBcOfj04WSk9u+wc6m/s+NIMQK+08ZgacHhVMRMSpUNrCRyb+tPTYlm/QbF5Vvqb6f8rmOT955j+jTMBhOrGarV7qzKoH+X/f/l+jo05v+T4Qf2TsDyJtALbt7fb2w8fBW9eqelbp1kyb1vF2dBLjF8T+WWcrw5bE67Et9aHQJagSZfNfo0Jxv8RTpaMqLBj/+t6eyvxU983AP3r/n4wPQDzWH7UglCvuhwX2/06ESHLhVSMMBgDc2rRrP41P30k84ONNLgrnsKoPLB6ZlSs8LXy5VPOrEiUFiF+CrZz68w3rmd1PalTyqyfx3q+RifF++cPIlB20zF+lU3gZQTC5z+7V6aWL0/3Wru2XDh+n2cJPAr8YLf1iInajMbR4Bbam3oGGIc10CHhb9hjMFh/R6KyiOvH3250Onjgibb3K96Hxx0xqHLKFp2vyyCtXJlzc8Q62ZsDX/kPopYsLxD9AJgMAMJb3MEzG/xQQQ9s/5UtP873HxwJ0VpE//qS6Ue8ODOB/ru0/LC04/rHrLrkG29PvAgAfv1+f//eSIk4hiyx7jKZm/97effyt5Y3bna/FL4z/Tyd2Qb60x1MOpX1XlhYaawZuiSTjHNg/W9Hbhq2pm8CPJCxoJvdT+/CoszdQrMsobc6fgtrcXJ2fd/0/u6g/w/oWVZZsh/D/DlGhdJgfOHmvte3QfOIfndzq+9Vls/AP1f9jzAQ02A3IkIXz/0IbMthLsMD+3w9Q3WjDVYHljdsfgNnCI9qZCE+wvAtTk206J87+ijIr184DqPZXEkXVQFGe+BBbtJ6nsbNfEGZv5mS5HaD8KxKT/nThqnwqmTrZKr5yHvla5cT1+IcflMsPZipHIeusmkHwpKFs4TvESf22R4M7JmIDkErcii3Jt/nhTyXrqfKv9wlHZCp1bgL+PruAlG2/Ftg0/K0t+znlSg/W6gAdvfSEifjbMG7KR2vqHOq84K+IE9sxsKEll0PcrKz/D2H/ZFOBiqUf09z3BXWdU3T8XdXpt2tRSefY/ut6Bb+g+JuvW9OL7S1fRLM6qG+2/6+lEdLKJKQnm2dptvBdGp54c+mR5++wth921u4umP+3tx0sUKn8sKccSvvGyr+Y8R62ZFFcIauu/h/mAX9j/fJrgbEVCvlCcebwprI1CUXrcYXMoDoMsn+tzOqpQ+7wuTpfEPwV/JT2zy5YbLIlXXdiIn5pWP8PAECcLDo9/Vn78KhzLPd84i8JD1BO2NzuI7NR/MP7/2o6tnZZBltTb51TMlz/T0QlKJS3K3SbV//vBMoAigDpRrAcABiVLIsfP/0JKJX3KWdUgtqZrm4qW4BFfWp/2JKM/pEFn9MsqGyN8lNnPlXevHsc9KMpAG/D1TlJeRAh16dqhKbip6p/VZzOeevkqerVHR5kgOTarKrSVdeOgspTS2tt3vM8FctbAzTxEOtt/xswDfemV/G0CJsXKFu4XzhlSoWxrLcYFxZ/f1I4Yqkvbxr+9sETj1GpHHpJFSbMTrZi8bvYKs+bTLl9zxv+oLF/AGAYNxl2Zt5deyAMLBAAlK3t/ODJrRqeoh6qMohxwR1YODpP7L+uV/ALhr+54cI4G+y9BxMx/83eRKDdNxTmNKOANOTM+M/kv81HJt9c+unWW0u/3L5dSrZg/p9PzHD+yvhDZNk5TRo3IQCkEmvZ6oHrwae+Ffr6la+p+LO+ToapxAeiLP+hkvWUvW/YWaKiqmtHV1UZ/OxfT/4msyD4a/K55JlXXwTGuuW3YHv6r6OaOc3kv8uLpUeEpdhyGZqDv0qvcLrq8Jbv68U/sv9nS7svhZgZ7lAKsf8nGrdeOrxFSjHv/l81EpIT+oVzAGDlF/aN8hOTtxMn78cPAkn9pIkWn9XJxXSivj0Aqre6nJdoJn9XeeP2LeCtIO8sgFsfmcQ8IhBh8oo8ZF7ivcpJqOTJoDthKoPQ4RxEcnlFPYLCVeTKQ9k8p1zh/qhffkbTSCpPC3Hwt+zt/OCIytiajb+awq3bbS7+nLKUK34jjOCqksBaU59mXa3iGmml/SvimoK/X7hx5aoV2JJ8e1ApHCIizqdm77f3Det8VDPwl6XqlPHLdC7sX6Wkf7RXx3nBH+MmY0u7/hum4+/1zHTLGhetPTQ58wmeKz5Ftj3peSutLZJrKs4dw4mTZY9TvriZzmQ/ae8/8fvFH22+tfzkts3VCQSRFtz/03TuKOVLj7qV1rc7RAS2ZNFnMJMS/WND/b8irm782SXLr8aW5A0+aVxENi/B2dlv2sfGHCz8/K+f/DDYaZRQ1vc57/+NwV6G8dgVrDPz1coH7MK/6aNC6aB94MRnrGd2ySdZib/Nwb8558io5MkUFf9I/t9YucRkbemPoMGqx/9E8P/Zwib+yrg4AV03/qyvk7ElnUnsbnfe9IlpXf7flJioRnV+v7Xr8q92bIzf/NrPQ1fb3a6HLyJpWpPAc5iuJw0A5QvOOd0eucR5ZROXmEfBw0tu2dV1/w/Y2w49oCiXXA+qevHopskj/8o8ZKonb5jRYJgyRHN+ep3CtJ0g+Zy/fOIJdtXqo8CYdIyl1I5C4k8EwKdmH7L3DavO0G42/mp9Ud3mJZ5Nxd8+MMIhGfsX/L0L/xJjRnVpj49dEgAm4yuwt+P95oYLv2JtO6STMa/4q35ZZysz+jo/hqYxOKdvAP4law9NZR/TyJf1AIUeAfgHHRou4e/lI+uxkPbvJdlN62le8TevXX8FLsp8DhmTztSTfLllT/GJ6U+Xn/jd45hJfc28bMVaXLzoBjCNN0E6vhYI2gAxiQzjqv6IiDhwKgFRARBzUCofp9nidoyZz9mHT261948cVDzwB5Vz3v2/vW/Ywt6OL2JL4p2VE89Ij5uzTDKduM68+qIbyhu3P+Gjc1DZwCcsbF5XWmNlv8kWZT6BBmvTlECgKv7F8lP28dObfcoAEK3e5/LoHkxlX6Ou73Pa/7OuVsaW96xkg70/qJ36U9PZKZjaP5FlZ/nps3/O974iHpCh+tWF+eWJ8mwRhZqPf8T+n63s3wAJ8+a5KB//L7Qh4rzA86WHJJ6h8ce4yYw1A2ns71wNsdiNrKdtHeRLvWCwHACN8NGpXwOyTdbze4erp1vWeKiOSHSYR30QhPIvX/rH+FuvvIwyyXehZ31cTV1vxsAHN0nByewUW9RSAMOYe00YhoecpmQ9z89k77CPjRWklH4G5ke6Wbh6Gr8uL5Puw/Bw9AqfJ3DpljJB5DajyOPKb+8bHjPWDHwfOlv/J7qWzMjrXkPiX7KOUr74eEDKZuEvCvfqoiBhE3Dz8S+Uxylb+GfsyPydF1+1fqwtfYedjD8KAMMh5DUdfxUZr1l5BbQmP+juhPX4ExGn2cKXrOf2hl0CVS/+PhR5mc25sv8KRfTJkpxG8tSuzStXdbPFHf+CMbOvEiI+9EsTOVOz99q/3f8kAABl81b5ub07AGAHAPwjG+jqZst6VuDiRX3GokwH2XacpnN9QGRiIjaFmeQUWHbJHjs7TmNnx+jUmRF+YiL6MtNz5P+pUN5O2cJ3sS39/uB2RoCAwBZ33GduuHCTte2QvHyo7v6/0TzGmoGbsCXhs/nXjT/ZvEBnsl+ydx+XVwToHkbDkn/6MM80bj4L2v+zrlZmrB1cyZb3/j9MmCvcsQRAqFDZeRgli8bOfoYfObWZStbC4B/a1YSelZgP/H15mFetbmMdLZ9D09AMXn36/6K1w9526GmNPF/8jUtXmKy34/Wsp/1OiJtXA8A4Tc1uA8seri75u5QNdN8Clg2xGzd8i5+eutfatNsZ2NUGAKpRBkhxcjqQ89BswbIPnrjduGjZEKXiV6FrxBkCODGZTeIHEdyyy5YFJOlJAJUjFMPJobJ1mI9MfMx6asc4qMvvF6aLh5Dp6uGtGgH64qGhsPqAGjdPWKPlD8zDZ/I/MtpbPgrOcY9atYLxp3zpCfvZ3ccj6tgI/go9fRQM/hAYaHQARR4X2QdGOFn8i7HXr3kvJuNDPlrUlMVErI/1d95rrBn4gL1vuBRSXlPxF8PM167uYF1t93hOePLDv1DeZJ+YfDikPvXh7znKTtPRulU8X+xfQzpDC+TTMP7Gqn6TDfZ+DhKxq+eSOOtlJbWyhUftk2f+b/XsfU+d8OGJST5ceaAvzxf+9Ze/YfztLS9zTJp3YzpxM5pGR62CXPXk3GDFThKxtWx57x2469id1U3xDff/dZYfAABir71oANvTdyFz1v6ryiDhnys+bB8aeTqijuHx8NSdc6t42xhs1wvS/5vrljPsbr2KLV/8ELr2wUn4K/xkZSCd/WfK5r9mH6idhL4A+Pu0VxX+TnS4ttWorQdiZG64kLFlPR/FdOJGl4LB/h+I8xKfnv0iPzkpTkKHwt9YM5A0LlzycWxL3wUlaxefmLmV7zy60T42VlvmipkUY0OLB41VS9+PmeTtRqLnBnjdxe+xfr13H4D7OwAihakQJfjWtsPj/OTEB8DiwoyhdleVu2bcydSfOQfg1Q3Cbp09jVqzrpMIyLYn+eTM7eWnduwSMshlidqwdGHzyVvGQwwDRTo/PjXC9pZkZf0seuouxMO/zM/PacntSNYRAADsZ3fvoXxpc00H5aahYPzJsrOUL94vdHh+ZWkm/oKecoD7PXP1MwDzhj+dnpqmsbOfDveRtQr+rDX9TuPCvvebr1kJoMZNpqbi75Cxsj/OBno+C+n4dV5V1fhXl4bcbW952fEn82mjokIgfNPBFSzJCMt7Pu1fQ772P2/4Y9wEY2X/O7Et9cHKJJKkg9iBFssH+djUZ+0tL08H8A7S+1Xt//mBk4dpavYeF0autuZedouIgO0t/yN23SV/ZG64UFK3/v5f0Eu+1vIx37A+yYb67sVEbL1HXwRQ4U8la5iPTX3BPnCy5MdboWMUjKoypZSeJWSgs2s/3k3v/42hxXEc6H4bW977HxgzVvrh7yEigGzh29ZvXv5s+dndQTo22f9XbVylrwr/ueh6dGyqjRqr+hn2dtyMmeQd7nYRwv8TAeRLm+2th5ylqaHxN9YsY8bKJR/EjswXIF962Hpu75vKP9nySPXhv+b/KZvn9o6jR8s/3/a/+PDpNwNA0riw78fmay7sA/AuAZLB8gNSvq7dl5/etSf2RvPDbGn399Bg8lGCQmUENEqdrLGpSehtzwGAsEHR57WceHwbQYHOZO+0fvHiE0JiXWcYtfyqsPnkXW+Yr06YTvTVQvyXWYQtqypN6PJTybKoUPo3Sidu1J8OEYw/lazNfP+JXRH0bhZGPhT4+ripYZQtcLKtR3E69zC0t7wzWD0EQGDY3X4fWjRsrl3+hLXnmE7OvOAPAJXX2hcPvBfbUn+JiJ7BgQp/IuI0nfuK9dzeTQF6No6/EsbQ77bPF/v30jmwf+P1ay/F7tbPI2PpqmClDmTzLE1lP1V+euf+ELzr0ftV4//5yUnOh8e/gunEH2M6ca1GZoWqYwQ0mAmLFz0I2cIbjeW9u+xjY03p/wPIjfWq/jjrzHwWkvG365edufEnIoumc/dYz+/dU4eO0fX2XQ4XaOPzjj9mUsy4clUna0t/Bhe1/BUaRlyRbo48cyUENFt8uLx59218ZLLUgI712j/412NoH7SgNmqsWsLYhX03scUd/6Ze+hOwGsHm4zQx8xk+OukswwutN3a3rsXO1rshX3y6vGnX7bE/uNQyf3/91zFuViZvOS+BTZyfnPwllKzHy5t2Za1n92wzr1l7K1vW8yt2Qd99uPPYe5yOVNGh1oiFuPbElX+x/Qk+NvVpsnnwEWXkvcbOzJgQ6ic3NFUcx+w/Wc/t+YZmfVtdZW0w3ULlkSk4nQKX2rV3cNtMHTzls/e+shlsvg/qJCLiMJ17yD4wIu/3qEufkOn8mOTSmwAAIABJREFU6zCY5gX/8lM7ub1v+HYqlA57IjU6omFk2OL2b2JP61XGqn7WqA5R8rCuDDNfd/Et2NV239xDYQgqWpv4TP4+yuZFW2+6r/PVIRjz88H+5yh8e50X/M2rVnUYSxbdh/HYgJ/86uDuH63n94nnvzddnwZ5L6j/t353MGcPj99GJWusVmGqOhSfp+JmrzHU9x9syaIVxvJeVd3MWxs0VvXHjTUDf4mdrX9bOzgkqP0RAcwWHuajZ74lfM+jKfpESKcn9+TEvONvXHZB0rxm7Q3Gks6fse62v0HDiFfqKhz+RMR5tvDd8jM7buUjk6rTFeffB4XxOW77Z8CY3ActqP2b166PGxctey/rW/RN36OoNWUgzks0OXNP6RcvbouqgzHUZ7IlnbeDwZL2K+Of4qNncnw6Z/Fc4Vdk83cBwH+1RyZ/S/niJFvW/RB2t/0bZlKMShbnp6a2UrbwALam32lcPrTeqUQuCGDSNRfCxHRyHpDzWBu3PwDTs/8Q+KVgxYsA1t4if9WvxpsKpQIARDoastphfIvvO3F3da2owy9MWQECyqrIEzZdPbzlPFyTR04XpqxzMnQvaOZey9VTJ2H09ujDD4xM00zuIe0H54KoZO2xT0xsDKFPc/H3rUMvCUvJ5xV/e/+JcfvUmfeRZbudvo++GDP72PLeH7OV/W8xLhpQyQjSOzL+5trlcfPqi9+P3W1f932bKBGVyof58PgnrI3bpyLqUy/+agqBeQje823/wfp6da/H1/nibyzvMdmynjsgVV3i5SOfcsXH6fTZ+/jkjGpwF8W3zK/9zw9vbVn5nuN76NTUJ4hTZSY3RPvDRGyIrez/BRvs2RB77ZqwddIQ/uYb1ieNNQN/hd3tn0eGczPWAe2PStZWfmLy09ZvXi6ErZMw+mjSRad0YrWxvNdU6NVU/I2LlyVjf3jZBmP10gfZkkU/xVT8ilpOrP3nb0OcWzCd+7/lx397Kx+dcibGFgR/EOs4jM8Rr+PmAFva1Q3zj7+HN8ZNZv6Xtb1G36J7K31SwHdoVG2YiEO28G3r+b1fU+gtylPqw1b1ZzARu5lmC1us5/bsAgBe/ulvLciXH6NieQwAON957An7wMk7aSa/GTta3o6LMoMAwOzdxzk/OPJlQGBsee+tbuc/R+LrDhlwXSPwEJUsXnryxXtgtvANIt0gwDtEIiLdkbUcABidmc0CYsGbXyOBCCBX/Ak/dfZT1u5jKsehK4uu/ADqRhKGjypvGN5ifFCH7/f6SKd3NKq8iovCJ0w78n0FxkcmH3XvLQEINZVOBDRbeNTeflje8O1iHxDWCP4qpTTXWt5NxZ9KFlgbX3qBn5y83fOdBVK/4gEAwJjZz3rbv2dc1P9R88pVaZhH/M3XrelgF/Xfhb3tX0WDdahV8gaSZU/xqdnby8/sdJZ7+dleTV5AmD/+4gxleDo/7d8HfwXPpuFvXDp0M7alP65e4jWnEhXLB+nkmU+Vn909reID7jpZGPzD81HlbRr+fGIG+PjZH/LT03e59vkEtEtMxIbYBYt/Bn0dbzdWLhGPB6+7/5eolif2uov72JKOL1ce/kFYruKvIxXLx+3hiY+UN+8eEYLnD3+GoEjnS5iMXWFcPHBNAO+68GddrWBevaYjdsPl1xmXXfAdNtD9LGtLV49/FUlRj/I+SM6zfHTqk8WHn/skZQuq71nIejcNf5EPW9JpEhHT6u0qQ+UHTSMNBr7b3HChGaBjU+3ffMO6TOyNv3eLsaL359ia+qu58/5FHQPaMBFQtvATa/vhT/KJGWe5VST7p6nZFRA3+9A0fuEuq/yalMeBVY7UxbhZO/CHXdC3D4rlUeB0tVOBcqFFgWE6E1VcRdlswSr/cvsnY9dfnqHW5HvR9wit6q7vsjXFZ/Ji5aj4V9eyKXbjC2yJCCBffIKfmvyI9eyuaZD0A3clqx5EPGVShAU+vCrCVXn8ZMv5dBgwTZhfHrc8sQPWHKxCnBjramV8YiaornS66NLI9VDLa23Zf5gN9jyJbekPej7HLuoLbp3JssdptvgDH/1E3ecPf5duqtdeaLL2lo4AXk3Fv/zkiw/Ebrqqj/W03VU7a931fQ3w4I+mkcGejn/BVOJN2JK80z5yahef+xBPw/gb6waTbGn3Fayr9R5Ixa+dO1JYqgkF/mTZUzSVvc36+TbVHh+dbDFdffgb1YcFv/XCIv6Isu89X+w/EH/WknTexISpq1D4x96wbiV2pO9D9FnihVD5MNd07guQSU7H3nplHwB4DmVRbQePfC8EEgDAVLYEuRInzjmNT5eAk8VPTjp1el75f2vbIYj3dfwfmMktp9b0hxBxrl065VLZdczsNjpbv4eXDT3A+jrvtvYeP05e/y7qFAl/8/cuTOLSzutZW8sXMBlbrzxOU9ffWPYkP5P9gPX0DmfJhMpuZflyWCT7R9McwJiwttuv4dT2VRht0Nl2n3n1mndYL+w7LBUjMv64KAPGmmVtmEkMYmv6TzERuwmT8csBkekbsaIenX1wRADF8n6azH64/LOtm8BLTX3+U6RxYYCLMkPAeRoMQ623SOLStdb0x7G3/bfmusHHrN3HndO/ZPkN4Q8AwAa6mHHRQCckYtdie8ttmIxfi6z6fKTAP+g4apgtPMFHJj9iHxjJQgj8FfcMYsZKIOA8VzyqycPYRUvfzrrbLsGW5AbIFh6xD508WGN4bIyxCxbvh7i5QvUdAB1gfr9yAVy/fGKmVN5+6PbYhguT1JJ8u3cQIBACAAcLyrYMWu2XylYOEC31aTDCNRFAofwCP376w+XKGeCOrr4jrDrqIUyauupO8SvL8uMbVCYVMXbB4pU1HjqocoW1bLDXFJZTRS23+Bs6LWULD1JL8p1oGplA/KtExfJGe+uB/ULQvOOPmRRga2qZVze9h0NERiVrXYA8WVbD+Jd/suXvYzddBa5BgEtnNWEmdRNLxK/FnvZv0UVLv8xPnjlq7zxa8NHdF3/j8qEk62pdz7raPgHpxC36Dd9q3aoP/x8r/+x3P6zu8Qmqh6bhj0s6OyFm9IEfifink2vZkk5T8RC54PbPMskL/HWWyMALjQsWm/aRU3LHW5f9s65WwP7OuzAeW6HVo0YE2Jr6PALcE5y2idSamgSiytJTxElIxMahVB7lEzN7oWTtws7Wo/bLw1l+YCSnOFZzwf1/6fHfWcbq/tvNyy6A2iAAYA5P3ZG5DBnraPkgpeJvifW0/SvlS9+09xwf5cdPW/WWwbxqdRu2pa9gXW23QTpxs/Ir7Q6p/HfZGqOp7MesX7z4tKIexLoIqitVemUa46KBOMaM9/l+8EuzRAVT8Q3GUN+PWUfLp+yRyS00fDrHJ7PaumPdbQxipoltaRO72+K4ZFESzub6AWAD62m7EjhdBan4Wu9Mv0YXACW+xHkJcsUf2gdOfMbadngE1BTF79XbhhkAcIybzFjdfzMwNreMJuS5CWgabWzxom9SKnG32ZH5Nj8yOsVHJuU2GqZMlYCetjiYJsOetjhb2pUEgE4o21ewnvY3AsNrMRlf4VVCc60g4lSimfz37ZcO3y48/Ndr/5XfudMwK3HC8mFj8aI/h5bEWjo7+23r6Z0fcZWbIQBWZItr1UTmug4EhPD/v72vj47jqvK891X1p1oflmRZlh1/2zGOCY4xSQAnExICIZAcwgYIsyEBdtiZAIHhsBw2sExOTiabcOZkMxkWGL6W4WPYEL6ZkAQC2eB84BhjO7Zi7MhWbEWWZFlqy61Wq1Vd9e7+IXWr+vV7VdWtbqkdv3tOn6q67757f/f96r2u7+elE30A7xlI2QAfNbeuBd+TACCbOBfxFHzSSCqNBlqSeuC69A80Ze/mr5z6YO7Zv/SLeITcxDJZXNUfrCgqwmSDjruOrK5f3EpyEGO6bcFYv9Q0lrXdhnKcsxKPXIEtiYtZW+I5PppWxVXl5pWDuL8V5eD86fAufNvrd6NpXFEKSjro2ZCxvsuT47Kp4mvGv3HJhhWYiL27tNh7pMBY5CZj69oHnT1H8yes88J/7pFd94Wu3ZZlS1ruKedFWwwZTRiKf4LikY+wtqYnWeein2LY3MGHx5J8IJnhJ0bd7V6UA+tcZLJ1SxPYFO9Ag70NE7HrIBK6XHpr1UfIdkboTPp24eC/2m0n9WVetIahwW7EkBlgBtNp/jFsbmAXrNjOB5M7JJjmrf+bF61NgGlK7sx6pYDXsJVLOpyXT7oPIiru/7hi8QaMhd8aKDRjDKLhdnmp1+VDlQSu01GiMQ0w4tPnqGTZSfO1q7rhghXP8ZNjvyaDdTu7elKUngRYoPHfeWnAAoffbrx2VQoWNf799IF34VKlZ7IYCXViJPQPlLM/iS2veZTWLf0PbGt6xjnUn6LBZIaPpGQH4dMrS1vD7PxlcYyGuzAWuR4j5nUQj1ysfLTLQ2gqd8wZGvuws+PADuGl36KYUMW2M9Z3mcaazhshHpGM38EEY+EtsHTRb8yWhl1w0ZpeNA2r6PZLYbdDICuXgJzTBEQJQmzHkNmFzQ0BxhJPBIW1mav+h3hy/M7cY39+GKbzlP7/Q42O/0DCg7H9gq3YGP9MJfsFAACaRgu2Nt6PsfBtxuol+zFsjs3eXZe3dYl+Rk1TdgvYThyIWsE0uiAc6ipc6Z+jkOOMUWryS/YfDvyz67Eft5TX/y27Hxky1hxfJfEBAGDb+3r/1rxkw8+xIfYutq5rOR89fGTGB5DDGYTM5eDwYXEUUBHuVxZY2PqultDWtd8Ej5MAmsh2O4dPvMXee1Q2GyMDAB79yNUvAOKFcgczB/99wx/IPf1iL5R2dPEPUdw5vXb6csq8/nxlB70qO1nbV4pHVQdCb35NAtua7sD2ps8HOSCgqdwhPjD6Xv7yyYPOyyfnvG8Iohx8wje88WZsSXwnSAelqdxOe3fPO5xD/WMwD/xjIsbMLas7cGnrA6wpfpMfvhK80++r/IQPJG/L7ehOSrCWhaeMOgAALHTN1uvZkkVfB4N1lHVQ6BJyuAWT1kEIGb3g8GN8fPIkTGSHgIgDoglNsS5sjC9BohXg8A0Qj2ys9E8AiIBy9iE+NPa3uSf27sjnAer+BVBF/s1Lz4+z9uYbsa3xy+pZIBXQs1Y3DZ+51Xn55H7nyIB7Eit3zJrwz9oaTePC1e24uOlrmIi9u1yuaTzziHNy7DYaSA44PQNz6vuhd267hi1u+bnvHZ+zRGj6znM3TU79mCfHv8dfGujng0n30eu8jv/mJecz1tr4d9jRfG+5+6hbyHYykLX2Qzh0jKasY5SxTsPE5BAQcDBYFBKxTtbcsAxy9nIA2Aix8JpK+/VMG+7ir5z6L7mnX5TN11PJf6pv/zcv3xxnTbH3YXvz/eV8dKAeZfpzkJSkMxNfdbqPP+D0DLjnQpFJzY//AKYnsGKrOy9nbY1fw0hoTTV81qMQEYep3D4+fOazuSf2PukqmlP/D9/45haMRXooM7Ur9x/PX5f/omXo7VsT2NbYg9Fwa+6xP59vvH7du42O5gd4OvsrZ+fh9zp904/pGptWrDEvPb8H0tl/QUUgWeCq2Rjru5rM6ZOA9yAiE59LpKncED915rLcb/b0yvyY29a3GxeseBYNY0PJYwDTkys8yU+MfjS3o/uYrAEl2yApUw26XlfV/NoAfPAE8RekzHOnMjav7MCmeH6WQBPD5nJMRNuxqeE/QTS0vZyDAcrZSco5D9HQ6efJyg0BQYYPjx3iRwaDzrBcto2xcXmHefGGZ9E010kvZOX3IyKg4TMftx7Z9a8e7SNKWdwaG5e3YmvjRgAAQAyzRYmt2NJwK0ZCm6UzRhYwKspmPuFGU7luSk1+m4+m9rhxUGZqwNnX2+uDtdxBpbh/XX3RRqO96dsQC19a8YF5OeLxXLKXPXGyIWs9yvtHP517utDX3RKkfURR8m+cv6yJrem8GSKhVgAANI0IRkLbIWxul96eD8A/5ewxcPjjfCL7YqFobKLbfurAL/zwBMyPAQAPXXbBVmhrvLZg0BR/DXC6AiOhLkU7+AplrWNA8CueyZ7K6/jx4Z85e3sPgbz/yjCz0LXb3sY6Wn6OjEXL4V+5v1RyI8AvoGxWTwBfjinnDFMm+y0aOv0V+089Q8LdqbzUfPxnbY3M2LZuO2tr/or8+fsFFPH/n1MWxjP/5vQN32Xv6pHdCXVLxe1jbt90ObY3XZ5XYsiMYdi8HMKhNxVfXKqc/0rHf3U9kD++VWhDmnbBKUnjkz90jg8/6OzuOeKyrOmxnVgW2r5pHbQ2vgdmHvtChgwj4TdAJPTWwgl/heN/vfZ/IgJw+BClJh/kL534V/vF414XHwHK3IfZyg4zdPGGr0ND9H3O4f432n88dDB0/SVhjIS/xBLRTxAC0JnMN+xdh+8Mbb/gCYiFL6RU5hv2Uwc+h8vaUsa6rruxOf7fne7jb3a/7e+1lAGXAXYf6Cr9OD0DKQL6aGjLWpsaYzciojn79jQChkOd2Nzw5dCbN30w9+zBoqugoUs3JNiqznvRYBtEYgov/A4mb83t6HbPI+B30K5sbEG8cveKJWunasSUlfnGYis73mUsaflm6RtMMHtbzP3CovhirWuQQtNsxZD5MVi95GP5jmCb7P38yODDoOAfAuwjknwKeTmH+oeNjec9DK2Jz6O7Y4odP2f30ZT1uE/7uKVsLtjy9u3Gio6fA87si/nBO/+CamGAKJyVTC/dZeSqMyMYCW/GjtADbHEzFHwjAE+m/5ezr/czKjwS7KoDA9V+BPYTew/xtsTV5mWbPwmLEp8DxBYElPLv/uMpfhNT3Kdc5KDMxn0/FqBogHfHAAQCAsg5A3R64l7eO/R/XF/2EiVI+7jF0wYbok1sUeLTGAuvm+Uyn1Bl/GPIbAGTbjKi4QL/nOAhAMifAFSn/zfHtxltTXcDQDEf7nWxzUGy7qqP0fAqIPikEQvPntCMjr8EAPn5OoL1/9HxIVjcnAWgaBD+i/qaV/9371/5bffLsG4RbfIHWnkeCz5h9gAsz3/BtpR/DBkd2JL4PMUi7zMXJT5LL5981H6xz/0YwLyM/3x0nPPf7H3GWNP5V+bWdXdDY/RDsy9cV8Z/tfs/AXCYso/w5PgXnL29v5i5axKkfcppu4ItNsWvMlqb/qEEUxX5r3T8L/LpGv9nMUFJ2xMnDpwP0fjkD52+U18XDvwBAo7/HjblH/81N2xkbY13IWK4WuN/vfZ/IuDg8GEan3yYj6QetNUXoOd0/MePD9vO8rYHjXVdNxorFt8FZzIfMJoaOBjsADC8DQEAmuM2ZKbSxPmtDPBiaIpzCJmcJWIXYiL6SUhPPm7vemmn+qUSuaj+OL1sZIlx3jM4lkuOfzh05UVJSkT/RvwWMGuMXcO7Wh8w37zp0/azB0cAAMxLNiTYio5/gljkI5KzLk7jkw/x4bFP2X/oll199jrzUuXgd9YrW4oi6oLGlNmrclDFlB1sT2+rZmHGUlXxmW++EwmdWX1FScq/yjiAMADgNDH5Y2yO/x24J+EQsFPGesT+Q/cxV8xa8A+F5wuxsKFuF9nMqiVfuRH5yPsWR60CRpVOzf/stlT4aDpj/WLnfeZbLnyEdTTfCfHItQAYn6Y+AP8lL89J9g/VLLPiPuiKQQ5P0fjkw/zEyL32zsO9ELxvVoP/YkAlU7+7yyR5qXJWfeWoFONc+78rTk37v18bF23bL/YdDK/u3APx8JVSDCUxUJKDl717WzgoEKWIC1RgKZ9/jJjr2OLmH5Fh3Gd2LrrX/v0L4oSE8zL+O71DYzRp3W5sWf1/WXPDPTN3+cLKNhfXg47/5fR/oulZUVOZbzm9Jx90Xuh1f7BDllu5/8mq/l8Kq0b8l/gvilXO+F+MaeYxnxRNZveAZX/H6T7+iOtRH4AKx3+FVHL8N4O1OuN/QVEv/Z8IiHgWLKeX0tnvOMeHH3L2Hh2A2bauyfEf7z3ZzVoSd2BH8wNs7dIvOn0n783tePFbQjxu/ejp/QCw39y6FtjqJZvZ6iU/Bs5T9rFTnwKYfglYDCL701Ot+5V7+uKjact6bPenw2/fMkiNDXegUfzyIWuK3wyIneZbXncrjGcyxoqOf4KG2EfEZ7+JyKaxiX+hgeSd9s5D+YmNguTgdeVE9OFX7tapyv3O9lR4vcpVO4v4J6A6QSlTVD1HKuXsS8EG7Bmx/9DdHXrPm55B07heVk6Ok4Gs9e+uGZ9rxX9AkbSbeMUCQLhqUfLv5N6YC//ivqDkwf5/+7sB4P2ht1+0HZsTn4V45ApgkKj0/YCKhAiIKE0TU49TMn2/vePALsWjFODarkX/n4OUw38JXpmuXP6rJNXv/5SetPjw2J3svPbNaBqlL9tWVeZxvxXiIsMwtDb+DxY2l5uXbPiU/fxL4syr8zL+88Ek54PJ5zBsXhW6asu10Bz/LMTC2wAx6t+vq9d+hWfU05M/4YPJLzu7eg5SrvCqhOf471FeTv+fR6nS+D89FtpAkKLM1H4k+qV9dOhJZ8+R/VCD8d+jHAKUM8VFqwWUue+/M/ttGmynnyamfguZqZ/bu1/aOfOC77wc//HBJPBU17cYY+3Y3ngHNkS2ha563d2UznY73X1pmpgEDJsMWxtN46I1TRAyb2LNDV8AIIuGTl/n7DrcCzD7FSDxwEsFKoh4HRSX6Ck9aU/99I//GHrHtj7W0fwAGqzVfebGGmNvRYY/hs6WLMbCVxYROD2hRYqSE3c5L/R+1Tk+LLu16peDuDPn7VW4Zbl5HbTK4gY5YQjqy8uv2pds8Akq4i1hf59B2w7AO8dCfbJsDpNT36ZY+JqiT1fmb9HlnGecwyf2KeLKsFXKv0I8Glj54XJBny/zu2oxK+XuS7I/CWn/z/1m7w4A2GFedsE21tHynyERfR8wbJ++epi/kgezGOeyf+VdcLLBcQYoM/UzGhr7rr23t5smJsWvCsnyFcuryX/prWk5enVhMP6r3f9LH8uoRf+flsDjf16Xe/KFZ0Jv3fJB1rnoQQibG4rePRFv3aNLL/YL9y16sa5fTiXtIjSS6tEET4fFggwZNMY+ZKzsYJDNfdx+4eWMq3j+xn+YngzQemz3IwDwq9Dbt16B8eit0BK/HgBbPD+wEGT899r9ObfA5n00kX2I949839nXe8R1ocZLgv4P+9lKQMG88D9dFGz8JyIAIgsIsoCQodTkfgDYDbbzZ6f7+C7n6KAwKWbtxn9VlhIpilXevIgKWcD+TwQcOFmAkAXbGaZ0djdGQn90jg3v5D0nuvnouPuz1wDB+mxVjv/sp7sttrLjH80LVu7DRQ13s/MW/x4mrYPGxuX7KZU5irFIMyCsAoJLIWI2UWbqZ/ylgS/Y03coAACYezIaEaif3ktXdt3cY7u/F3rLhX1sWdvXZ/4ACgbYEH1TSa3pF6yO8eT47fYTex+VDCBeJJQ7kAbKIYDvIB1pPnxlAGFYNA4syttnhbX87e1K9h1VWYkv5+ArT5mXbjwIYbbFjYEIOI1NfNc5MpBR1fWI6RtX2M4CuNsyP4J4DDriLV/0qFN6Jch9h8tPKh2I3NvCoPPibgDYbazsuMu4cPXlZLIbsDF2BTDWDgzjCML3xssQIuLAKQucD1M6+yTZ9mPOgeO/4y+fHJOYlzuw+tX19UNTOYsmpvaRw5M+9eckNDmVf3a3av2fzmR6uWk8PCdgQSSd7QPFviPZLtLlfrfvt8a6rsuMLavfRQ5/PRB1AAHDWHgTNkQ3AUDxfiV7+c52hiidfQSIqscRQRiIOsFgrRiPrIKQ0QEEiekXv1UHeuoOgIiMGmI3s9VLBoyxiTud2Un0AOb3v2S27X+z5ykAeIqt6ug0t667koiuw+aGywGgBRjGUfaIhigoX5/p1xlw+ABNZH8Hk1O/tg8cf4r3j2RKfATHP/f+P2md4OnJXT4Y5k8cngbbGQGAFJjGEDbGXuH9o/38lVO9dOpMHx8d92svUao+/gfwU1QXJ60xSmd3k9fcD/UkOScJnKcAcRjDoUFC6OP9o328f6SXBkYHFCeqC3b8x48Pc+v48K+wo+V35hvWXYnh0FXgOJshbG4ixwHI5o5gNHy/feD4o8JcSAAAPN9NxTMNrzNpqLAsiH8Ibb9gBVux+NcYC22WnNrNbll2r9Mz8E5756FDEj/VyicQ5hqVgYfdQmGuOf/lloXfue1DuLjlK9OPj9H0RYFJa4f90sANzp97kj4+Nf/llUljYyIWZhuWbTY2dG2FqdxFYLBNmIitA8Q4AJlAUDr4I1gAyIHzNGWmeiHndEMs/AI/Orif9w5185FUZqHyqaL/uZSBh91CYZ7X/m9etjnMmuO3YFvjl9BkrV4H1URk0/jkT/iJ0Tvt5/5S+Ob1HPMp8YFhk+Gytk5z88pLIRp+JzZErgfG2osfnREvkcu3iVOWTqU+YD2y6xeSeG5ZEP5ZW2Pc2LBsC1u1ZCtlrdeCYWzERHQdIERn+rS8XyPaYDspmsgeAYL9YBgHnJ4T++jk2EHhxd6qYy6zTPf/8srq7v+/xvm86vlHV4F7CYJOBkbm3MuHSlfiI/zuN36ftTX+tawl8kJZ6xnr9y+8g4ZOu5+jlPkVy0SpNMdq2QMEI60aO4+sLB+/bvj3iFmSD4ZNM/SO19+EsejtEDE7KJX5LT915l77mYPHAraD5r9G/GN7Uws2RJuwNdEufk6Uj6SGIOek+WBSPEkri/8A2GQ+/PSa/wXu/+bF6+NsZcc9mIh9rGR2akHIdlI0NvFFe+/Rb/C+U+Iteb92mBOf5iUbVhjLF98BjbFbxHfYvJ8RmS6jqdwhe8+Ry5yDr+TnvKl7/llHczs2xpuwKVb0uC443OYjqWGYslJ8ZDwdwO+cx3+Fne7/3vm5y/Lx66r/e+Sg+fcv88uvULZQb0R5Svj6S77OFjf/Vy8bcvgj1k+evYHSymeCaylBd7BMP6tFAAASp0lEQVT5xCSThY5fDanHtq5HTDJZ6PjVkHps63rEJJOFjl+RmG9YHzdWL3kQErGP+M1DMX3wn74t99ifHwr4HHk1pKhdWVvCNN/4mpuwrekrgSbacj2XTEScRsc/Y/1y5z/XGudZKvXY1+oRk0wWOn41pB7buh4xycQ3PlOsL7TuxOyq4i0SRMt18A9QfEZVS2xzId/zz8xlI9pVinc+26SaOrfIcgiqqwU2zX/tdW7R/J9D/Jtb15psefvdswf/6rcIiZMF45nbXQf/C8I/H03z3G/3/pBOp28nzi1JnWJxv9+GyLApfhtbsih/9+Cc5l8iuv9r/jX/wbG5xbdN3IVc0OUTYBLb2tpFQ64XuBSflTkz0V+wrwyHqF+YXINhqzYOkWuZbuH4nx8cor6echXtqo1D81+qr6dcRbtq46hL/jFsMra09RZsafjE7JV/+fhPREBnJr6a++Phh4RPwi4I/2TZ3P5Tz0N0JvPVsj99YrAV5kWr3+SBLTCOgHZ1yb/HUvf/6uLQ/Jfq6ylX0a7aOApcsxmlCpAKsFufdyYbhEU9eNgXltgQS1JhljXFYGrlTgVIFDz0srwB/H3OZUdT5ixgLXcZNL5qWVf8K+r74dL8+8dXLTX/wX1q/ktzkmEHiR487Lm5bf06bGu8q/izvorxfyq3h4+cuUcyW6yIc97454NJm85kHiTLnr44FfA8AA0WhYbYZXCO8+9T3w/XgvOvsANhW/f/YLmK9f1waf7945cs80ZuQy7oxG3RTiaqMnejg8IG+MiZJHCa+ZQkTg+k4jTZlj3mg8vdOH52XvWD2AWNL5IFgl6104h2Yn1Z/Hx9UeeXw4LzD+r288Mu6jX/pTq/HDT/mv95599Y32Wy89rvQdNcXjzel47/xLlNp9N32TteHPHAtSD8209399HE1A+Kvisu+/8CQY9wMZzD/Cvq6/6v+Vf50/zP6mXx8/VFXZGt31mMe10EJ5aJIjtjEhtCrMcBgFE6mwKi6ef70fXLCwIApz4oTlB2ZiY2BIC8IWX1ZbnI6vudkcnqi2Xu+iJ2d31Vp1L59NPJ8Inb886/pJ6XjVun+S9PJ8Mnbmv+Nf9ePmX1ZfU8+Wfruy6HWOTakvFeNv5b9k7n5ZNPAdQf/2TZQFbux4V3AVT/X1Csx4boGjiH+Z8R3f9Lsbvra/41/zLfFfPPJMDd20F2DK8ymW8VoEIZjaVTAOD5MhW2NOSv/sw1B1VOXjmIccWc5qPtyvGt8lWX/AfMAUDzH9S35l8dR/O/wPyzpa2AjbHPlH5GUy6UTP+785dXUlCn/POhsX6Yyh2BcsRgCUxEwz5xZTiDlNU1/xXmAFCn/AeM61em+ffOAUDzH9S3kn93Atz1A2Hdr9yvLii2mWu9UJcGT48AgHLWO3K4BZFQSqjLIHhcMae51lVtq0QVV6wr8yXjpZK6Ks4WnH+ful7trvnX/Gv+g9WtG/7ZyiWbMRYune1dImQ7aQibO6CO+efHT46BafQFyWfWG4UxEWsX4pwT/JdZV/d/zb/mvxRTRfz7nV24TxCCnCmJOneSbhH1xXWt3Bgwpr4DYDspnkwHmRZbjMMFfTl1Rb0oqp1ZtnOJZ48yGxGzDJ+XrehbxOjHp6quar16/HvXFXF5ieZf86/5r3P+jWWt1yBjLRBEcvYh53D/gMSnTBaEfxpJWRAyUhIb73iI5yT/ZdYVcXmJ7v+af82/B/9uILKdw2tddK4KWM46AADnybQFtj0GKnH4CAwl8ycAqsaUrYNE75dn0HW/OGJbzSVm0Djgs16X/JeJRfOv+df8n6X8Y9hkYODVRTPKekk4NMBfGU27sNQl/zQ285lq91eMPNbRYBYfTA4FjOmVz1nFvwKv7v/e60HjgM+65r+ymK8a/k0hgfzSa90raDk7k8xHvozTpDWE4RBIBSFFqUlxyve5kCbqylkPGkckMIjtXGKK6zJR8bfg/AsY/XCJ9TX/pesy0fyXF0fzPytV4R9bG1ugIbrJA2ORUCbbTxPS2d/rin/WFO8CgNlJv1yz/xbpZ9bJslNzjemzLpMF519Yz5fp/q/5B6Ge5r8G/MsAAZQ2jiiyxpMlISuXxSsty39LWSamkeJnJrKSElkcWcOJ4rVjymLIfKlIVuFT566Oo9rhZf5FXO51r9zEODKpPf+zccrBpflX43Kva/4rj6P5ryL/rHPRCuAU6OVfAACyPWfarQv+sSnOiISc3Af8ks+CUiYrvjR8TvCvWHfHKQdXXfAfEJ/u/5p/Ue8Xp+r8M5dT5tJxV5lbmGRdXIrrqob0qz8EAPKJYJAlaSSVhdJGEnMQRUWQ2KgiRrGeSIgY12snE9e9ds4gO7sMk2pbFrde+ZfZqnIQ1zX/mn/Nf+l23fGPnS0dgBhV2JSM/8KTQnXJP1uxuAkse3nJf1d+u/D5T9ckAZy6JZhf9fwHqO/e1v1fXab51/yLmMXtkrimy1C1nEuZF3BPn5iIvgIAJSM+AAAfz7jvDqiwiDtBEJwqG68dSuUzSJ6irZ9U4kuGyausLvgPUCbb1vxr/vNLzb8ak1fZ/PLPDNkf8qwI4z82xpdjIsYoPemHZcH4N9d3tUPIWFfy31XyXzY9UxgRWUjwvMR/UHwyG9l2/fGv+79KJxPNv+a/XF+ebed11qXSlWMrO4sMVp9ohDhJEiSA9OTxAD7zO0Fl8Yt1Io7a56/W6fjBbDX/53Z8zf9ZEV9yh9dLcnYHtjTIHhmqG/5p0noThswmiY1cCMbsA8d2B8TkG1/Q1Tn/NYuv+/+5HV/zHyA+cy25sC2roNKDR3134wWuz0fHx4Bz2XP+AA4fCBife+Dyw+TVJkHbSpV7RW1SYX0vfd3y74Gz3Pqaf7Ve86/5d2Odf/7PTIxNz/ounggoTwzWsPOXtQaMP+/8GxuWxbE18d7iHDxyIwBKT+5wjg4OlRHn1cO/d33d/zX/c4mv+ffWM7GhK1mKAGWAmGAvLgGKG4zzU2dGgEByAoCALQ35R4BUtzv89LLbIkGX5dQTc82LjGTfNgF5W5eLs9wc/JY14d9D75WT5l/zH0Sv+Q+eg99yTvzz0fERQMjOPBTvEvlnQTEaXo7h0BZFTgvOP1u1ZCuEzSuLc1DnRkQWZKzvwznKv0cuuv9r/mV6r5w0/2XyL5JVjshOHtw/VXA/wNPKwdPDgJARr6KQ42QxHAoyyUrQ3ILYVerLM0cPO5W9yq6auQaVmvLvUV7tXDX/lYnm399O81+8LNHxV0b7gGBmzhfZVf/Sq+jY0vAB7GoLB8TnJ1Xj39i8MoGLGj6LBpt5qTlAPlO5Pbkd3Y/PKM85/iF4rmLcoPiqYaf7v9qX5l9tV/f8e529+enE4Cp7LtH52yXHk8BYmgg4EfH8EixnxBk+I5sFWPQrO2Oq1E6Vq8yu/FznZhc0h3Lsguhqy39wO5W95l/zr/kvXtYd/zQxaVEq89y0yvXNfICZY2TxKjoBhs13mReu2gzFsqD8hy7dyIy1S29h8ei7gFyYC8f7JOgQiPMsjU3cQ+mieQ3cfl/1/FfBTmWv+7/mX/NfvCyxMyWBxIS9Gly08yoL4qOgJ8vmfGD002QYrYiu8XPKSlHfKb/nJd1lYnw/LKrG8suHS8q82kTEKW6r8hHLZFj8fMw1V5WdV1lZ/LvWZThldTT/wX1o/tVYNP/zzT/BY8Tpr5GhCQCzX8uRPgWEgKaRwOb43ebr1nzAfqE3PYdcZfmU3SbG+i4GDZErsKXhHmBY7LtwLoBFOiICmsj+KvfEvsehWM49/ouxieu6/5faaf697dxlmv9SfQGnOMSKRIp6WblYJiNL1YCqMhkeWZkYxw9zOVgrjV1JmYxcv528Wv7dovnX/Gv+Nf8qfU34Z6s6WkOXv/ZPGDJWAcD0FXL5KwCzQsT52MSdzoGX73N6BnkAXOViDcS/ecFKhh3Nl7MVi3+EptFRihPyX/t03cQgICt3xO4Zutp5/tAxOMf5l5TJ8Oj+r/nX/FfZv+EyyM9Kkl+X6bmgB5gd3tw2oj0q7FVlAGoC3JjE2LK6qth+WN0+Rf+o8K/yqcKcF6988np3vHJjc/BvL82/3Ebzr/nX/NeQfxqbmDBWdzZCLHwlIvof/AMAICKEze3Y3DAGiLtpJAWStvCKPWf+jTWdJlu15Aa2rO27GDIWy3EKSwAgTineP3qL/cyLe/IqOIf5V6zr/q/51/zXmH/DZcBczpmrAirW804gwLrMf6V+Vb4WKoe5xBXXK/F1NrfdqyEHzb/mX/M/R/4xHvkLa2u6AQ1snVaBq9gtszpkaGA0/HbW0tCGDdHnKJWxwLJrngNb2grGhSsXGeu77mPtTf8TTaMxCF4AAnIoyweTH8v9bt8vBQznNP9ncQ66/2v+z1r+DaFQdJb/ARSPym7nXFgPausuR4Ut+JT72eaxqOKqcOXrkMtetHW3l5sMEZfM1i+u21deL5Z7xVX5UuWo+df8a/5nRfM/z/zzwdNp1tV6EhPR6xBn3gUouHGLoENEjIQuxub4tay96TjEwsdgbILA4W4sVeGfLW0FtnpJ2HjNee83Ohd9jyVi70CGRnE1NV5yKMtPpe7IPbb7mz5xzzn+FbbgU677v+bfy9adp+ZfUu4esfJA52tbJu6zFPey3BhB66t8gEtXCYZy6osi1i8XQyX1y41RjW2ZaP41/5r/4vrlYjir+Y+8/7L7oSH69+h+aTaoEAFNWk/x5PiX6dSZx2liKusc7p8T/5iIMbamkwFRi7Fq8fswEb8N4xHxC0T+uDil+MDox3O/3ftDCQYRD8A5yj/o/q/51/wDzBP/COpGUzWiH2gvP+XYqMCDol4lsYLGLMdfEJyqGGJZOZhlUs7OqvlXx9T8+8cJ4qccGxVmUNTT/JfKWcc/a2uMhq7a8jVIRG8pPgnIX+zKbxKARzlN5YbJsh/ho6nH6MToLrZh2QDvGwY+eJrD6TSQZbuxAABwbG1k2NIArKuVgc3DMJFdx9YsuQLCoasxHrkSDRafjjkTK4/BjYUAAGexEBGAZffxgeSHc0++8BRo/nX/V8fQ/JfmpfmvIf/5EwC3MzFZEMpBsBNtZQHdtn6+ZDYyP6oGVdl64ZH5lGH229FU2AC8c6xFzCBtqsKi8u8Wzb/mX4wti6H5n40ti+eF65zk33UScDMiqrgqS2hyqp+m7JfQZH0Qjw6B40zw5PgwAADGwgnW1NBGU7kEZa0uQFyHscgGDBnxOcUk4jCRfdR++eTtzq6X+iQmmv/gWHX/1/xr/qvMv3ifVQQdRC86dtvLGqFc/7XE4+VTtnN52cl8q/D4YQVJmWwHkGEDULe9zK8YW/Nfuq351/xr/uV6mb8588/aGuPm9k1fwNbG/4YMw7OPvQIUP2IMgg4EO5IsxToyG/dS9CnbntURAUDOGaLk+BdzT+z9N7JsG0pF818bfTl4vHzq/h9ML/On+ffG44cVJGU14Z9JCsvRewUQAYOwLfquBI9oI8MjEqTy4YXVy06Gww+P25dKp8Ij7jCqHVPlW6bX/Gv+QbKt+fe3k+Hww+P2pdKd0/zz0fGM9cvnv8hPJN9Llt1HlH/sxn3Aja4fSPSgWIp1XGVEkjqiT2F75lyACIAcylAy/b/tPUdeb/36T98iyxbbW/Mv911OXJno/q/51/z7+y7Sy960cpMrI9pPxMZRAfeqLxJWjg/VzllODrI685mDl49ypJIcNP/yOpr/4DHdovnX/M8pb3Prmna2YskXsaXhb4BhFMXn7gGg5B0BmZTUkdST2pQ4KqpDRAA2T9FE9gdO79D9zt6jx8QcQPOv+7/mP2h9zf888e810lUjYC3q1CuuSuuUK/Wci+Zf86/5r63Ucy41rWNctHaNsbbzc5iI3TJ9IgAgf/RHFNnfnGgrezxI7W/6jgRwyEx1k2V/x97d8wPedyoJmn/d/2sr9ZyL5v8s4x8FA7ehl66SOiodVMlPLTGejb7PBoyaf80/nAUYz0bfZwPGivg3Np3XaWxcfjOGQx+EeGQTALDSz4aKdwRkdwgC3DUomNL06QCBTZnsQXTop3bPwC+cF3q755i/5r/+MZ6Nvs8GjJr/BeZfNfq5iXHruMROtBHryUCBYFeJ70oaZK64K4k3V99euCvVycpFWxGz5l/zr/nX/HvFmXf+jQtWbDQ2dL0NmHEVxkKXQjjUka8gnUvA65i/8HVP15V/IpvS2UMIsJMmsn9wDr6ywzl2sk/AqPlX15PFBsFO93/Nv+Z/AfivYLYVLVq0aNGipf7EWNO5BrvaNrHlbRsQcSVN5ZYDQAeEjE5ADCNjYYyGOgERKOdkyMqNAACA7YwApyQw7MdYpI8nU0f50aFuGps4xIdOZxY2Ky1atGipvvx/pl8o6dK/41UAAAAASUVORK5CYII=;" vertex="1" parent="1">
          <mxGeometry x="-718.65" y="-890" width="117.3" height="30" as="geometry" />
        </mxCell>
        <mxCell id="dUCaKXgbbs238n5Zq2bG-2" value="此服務中斷不影響總服務運作" style="text;strokeColor=none;fillColor=none;html=1;align=center;verticalAlign=middle;whiteSpace=wrap;rounded=0;fontSize=12;movable=1;resizable=1;rotatable=1;deletable=1;editable=1;locked=0;connectable=1;" vertex="1" parent="1">
          <mxGeometry x="-502.5" y="-1045" width="215" height="30" as="geometry" />
        </mxCell>
      </root>
    </mxGraphModel>
  </diagram>
</mxfile>
